<svg width="110" height="58" viewBox="0 0 110 58" fill="none" xmlns="http://www.w3.org/2000/svg">
<path d="M3.02094 50.2847C2.85797 50.2195 2.54834 50.1706 2.09202 50.138C1.60312 50.1054 1.32607 50.0402 1.26089 49.9424L1.35867 49.698L1.65201 49.7958C1.91276 49.8284 2.14091 49.8609 2.33648 49.8935C2.53204 49.9587 2.7439 49.9913 2.97205 49.9913C3.62393 49.9913 4.2595 49.7958 4.87878 49.4046C5.46547 49.0461 6.03586 48.7039 6.58995 48.3779C6.75292 48.2802 6.91588 48.1824 7.07885 48.0846C7.24182 48.0194 7.38849 47.9542 7.51887 47.889L8.30112 47.1068H8.44779C8.51297 46.9764 8.72483 46.8134 9.08336 46.6179C9.44189 46.4223 9.58856 46.2919 9.52338 46.2268C9.55597 46.2268 9.58856 46.2105 9.62116 46.1779C9.68635 46.1453 9.73524 46.1453 9.76783 46.1779C10.0612 45.7867 10.2893 45.5097 10.4523 45.3467C10.6153 45.2163 10.876 44.9719 11.2345 44.6134C11.4301 44.4178 11.7397 44.0919 12.1635 43.6356C12.6198 43.1792 12.9783 42.8696 13.2391 42.7066C13.3042 42.3807 13.5324 42.1037 13.9235 41.8755C14.3146 41.6473 14.6569 41.354 14.9502 40.9955C14.8524 40.8977 14.9013 40.7184 15.0969 40.4577C15.325 40.1969 15.5532 39.9525 15.7814 39.7243C16.0421 39.4962 16.1725 39.3821 16.1725 39.3821L16.368 38.9421C16.4332 38.8443 16.5962 38.6324 16.8569 38.3065C17.1503 37.948 17.4436 37.6057 17.737 37.2798C18.0303 36.9539 18.1933 36.7909 18.2259 36.7909C18.2585 36.6605 18.3563 36.4975 18.5192 36.302C18.7148 36.0738 18.7963 35.9109 18.7637 35.8131C19.0244 35.6175 19.3341 35.2916 19.6926 34.8353C20.0511 34.379 20.3282 34.0367 20.5237 33.8086C20.9149 33.3197 21.2245 32.8471 21.4527 32.3907C21.6808 31.9344 21.9905 31.4781 22.3816 31.0218C23.5224 29.6203 24.6631 28.1862 25.8039 26.7194C26.9773 25.2527 28.2158 23.9001 29.5196 22.6615C30.0085 22.2052 30.3996 21.7489 30.693 21.2926C31.0189 20.8363 31.4426 20.4126 31.9641 20.0215C32.0619 19.9563 32.2575 19.7607 32.5508 19.4348C32.8441 19.1088 33.1375 18.7992 33.4308 18.5058C33.7242 18.2125 33.9034 18.0658 33.9686 18.0658C34.0338 17.9029 34.1968 17.7399 34.4575 17.5769C34.7183 17.414 34.9138 17.2673 35.0442 17.1369C35.305 16.9088 35.5494 16.6643 35.7776 16.4036C36.0383 16.1428 36.2991 15.8984 36.5598 15.6702C36.8206 15.4746 37.2117 15.2139 37.7332 14.888C38.2547 14.562 38.6295 14.3013 38.8577 14.1057L39.0043 14.0079C38.6784 13.682 38.2384 13.4049 37.6843 13.1768C37.1302 12.9486 36.2991 12.7694 35.1909 12.639C34.8324 12.5738 34.4412 12.5412 34.0175 12.5412C33.5938 12.5412 33.1864 12.5412 32.7952 12.5412C32.6323 12.5412 32.453 12.5249 32.2575 12.4923C32.0945 12.4271 31.9315 12.3782 31.7685 12.3456C31.6708 12.4434 31.5078 12.4923 31.2796 12.4923C31.1819 12.4923 31.0678 12.4923 30.9374 12.4923C30.8396 12.4597 30.7255 12.4271 30.5952 12.3945L30.4974 12.5901H30.3507C30.2529 12.5901 30.0411 12.6064 29.7151 12.639C29.3892 12.639 29.0633 12.6553 28.7373 12.6879C28.444 12.7205 28.281 12.7857 28.2484 12.8834C28.0855 12.8834 27.9225 12.8997 27.7595 12.9323C27.5966 12.9323 27.4336 12.916 27.2706 12.8834C27.0751 13.079 26.6513 13.2257 25.9995 13.3235C25.3476 13.4212 24.7283 13.519 24.1416 13.6168C23.5549 13.682 23.229 13.7961 23.1638 13.959C21.3712 14.2524 19.5459 14.8391 17.6881 15.7191C15.8628 16.5665 14.1517 17.6421 12.5546 18.9459C10.9575 20.2496 9.58856 21.7326 8.44779 23.3949C7.3396 25.0572 6.62254 26.8335 6.29661 28.724C6.26401 28.8217 6.24772 28.9358 6.24772 29.0662C6.24772 29.164 6.24772 29.2618 6.24772 29.3595C6.24772 29.6855 6.26401 30.0114 6.29661 30.3373C6.36179 30.6633 6.37809 30.9077 6.3455 31.0707C6.28031 31.1359 6.23142 31.1685 6.19882 31.1685C6.06845 31.1033 5.98697 30.9729 5.95437 30.7774C5.92178 30.5818 5.824 30.484 5.66103 30.484L5.46547 30.5818C5.17212 30.3862 5.02545 29.9951 5.02545 29.4084C5.02545 29.2455 5.02545 29.0988 5.02545 28.9684C5.05805 28.838 5.09064 28.7077 5.12323 28.5773C5.35139 27.3713 5.7914 26.1654 6.44328 24.9594C7.09515 23.7208 7.8774 22.5475 8.79002 21.4393C9.73524 20.2985 10.6805 19.3207 11.6257 18.5058C12.0494 18.1473 12.5057 17.8214 12.9946 17.528C13.4835 17.2021 13.9398 16.8762 14.3635 16.5502C14.4287 16.5176 14.608 16.4199 14.9013 16.2569C15.1947 16.0613 15.488 15.8821 15.7814 15.7191C16.1073 15.5235 16.2866 15.4094 16.3192 15.3769C16.6125 15.2791 17.0036 15.0835 17.4925 14.7902C17.9814 14.4642 18.5029 14.122 19.057 13.7635C19.6437 13.4049 20.1815 13.1116 20.6704 12.8834C21.1919 12.6227 21.6156 12.5249 21.9416 12.5901L22.0393 12.5412C22.2023 12.3456 22.626 12.1338 23.3105 11.9056C23.995 11.6775 24.7609 11.4656 25.6083 11.2701C26.4884 11.0745 27.2869 10.9278 28.004 10.83C28.7536 10.6997 29.2751 10.6508 29.5685 10.6834L31.9641 10.4878C32.0293 10.4552 32.1434 10.4389 32.3063 10.4389C32.5345 10.4389 32.779 10.4715 33.0397 10.5367C33.333 10.5693 33.5449 10.6019 33.6753 10.6345C33.8056 10.6019 33.9197 10.5856 34.0175 10.5856C34.1479 10.553 34.262 10.5367 34.3597 10.5367C34.5227 10.5367 34.6694 10.553 34.7998 10.5856C34.9627 10.5856 35.1094 10.6019 35.2398 10.6345C35.305 10.6019 35.4027 10.5856 35.5331 10.5856C35.7287 10.5856 35.9242 10.6182 36.1198 10.6834C36.348 10.716 36.5272 10.7486 36.6576 10.7812C36.7554 10.6834 36.8695 10.6345 36.9998 10.6345C37.1628 10.6345 37.3095 10.6834 37.4398 10.7812C37.5702 10.8463 37.7984 10.8789 38.1243 10.8789C38.3199 10.8789 38.4991 10.9115 38.6621 10.9767C38.8251 11.0419 39.0043 11.0908 39.1999 11.1234L41.7422 11.9545L42.6222 12.639L43.0622 12.3945C43.2252 12.2968 43.4697 12.1338 43.7956 11.9056C44.1215 11.6775 44.366 11.5634 44.529 11.5634L45.5557 10.9767C45.7186 10.9115 45.8816 10.8626 46.0446 10.83C46.2401 10.7649 46.4194 10.6997 46.5824 10.6345C46.8431 10.5367 47.1039 10.4389 47.3646 10.3411C47.6254 10.2434 47.8861 10.1619 48.1469 10.0967C48.375 10.0315 48.5869 9.95001 48.7824 9.85223C49.0106 9.75445 49.2387 9.72186 49.4669 9.75445C49.9884 9.42851 50.3469 9.26555 50.5425 9.26555C50.7055 9.26555 50.8684 9.29814 51.0314 9.36333C51.227 9.39592 51.4877 9.44481 51.8136 9.51H51.9603C51.9929 9.47741 52.1396 9.46111 52.4003 9.46111C52.7589 9.46111 53.1663 9.4937 53.6226 9.55889C54.0789 9.59148 54.3722 9.64037 54.5026 9.70556L54.9915 9.85223V9.80334C55.1219 9.80334 55.236 9.83594 55.3338 9.90112C55.4315 9.93372 55.5293 9.96631 55.6271 9.9989C56.279 10.1945 56.882 10.4226 57.4361 10.6834L58.1694 11.1234C58.2998 11.2538 58.5279 11.4819 58.8539 11.8079C59.2124 12.1012 59.408 12.3293 59.4406 12.4923L59.245 12.6879L59.0494 12.3456C58.8539 12.1827 58.6746 12.0034 58.5116 11.8079C58.3487 11.6123 58.1531 11.4493 57.925 11.3189C57.4361 10.993 56.882 10.83 56.2627 10.83C55.6434 10.83 55.0567 10.8137 54.5026 10.7812L53.5248 10.6345L52.5959 10.8789L52.4003 10.7812C52.3025 10.8463 52.0581 10.8789 51.667 10.8789C51.3084 10.8463 51.1455 10.8789 51.1781 10.9767C51.1455 10.9441 51.0966 10.9278 51.0314 10.9278C50.9988 10.8952 50.9825 10.8626 50.9825 10.83C50.461 11.0582 50.0862 11.2212 49.858 11.3189C49.6625 11.3841 49.5158 11.433 49.418 11.4656C49.3202 11.4982 49.1573 11.5471 48.9291 11.6123C48.7335 11.6775 48.375 11.8404 47.8535 12.1012C47.2342 12.3619 46.615 12.639 45.9957 12.9323C45.409 13.2257 44.806 13.519 44.1867 13.8124C44.6756 14.2035 45.1156 14.6435 45.5068 15.1324C45.8001 15.4257 46.0446 15.768 46.2401 16.1591C46.2727 16.1917 46.289 16.2569 46.289 16.3547C46.289 16.5828 46.3542 16.7458 46.4846 16.8436C46.615 16.9414 46.6964 17.0717 46.729 17.2347C46.7942 17.3651 46.8105 17.5117 46.7779 17.6747C46.7779 17.8051 46.7942 17.9518 46.8268 18.1147C46.8268 18.1473 46.8757 18.1962 46.9735 18.2614C47.0713 18.294 47.1202 18.3429 47.1202 18.4081C47.1528 18.5058 47.169 18.6199 47.169 18.7503C47.169 18.8481 47.169 18.9459 47.169 19.0436C47.169 19.8911 46.9735 20.8363 46.5824 21.8793C46.1912 22.8897 45.6534 23.786 44.969 24.5683C44.8386 24.7312 44.7245 24.7964 44.6267 24.7638C44.5616 24.6986 44.4475 24.7475 44.2845 24.9105C44.1867 24.9757 44.0727 25.0409 43.9423 25.1061C43.8119 25.1713 43.7141 25.269 43.6489 25.3994L42.8667 26.7194L41.2044 27.5017C40.9437 27.6321 40.7155 27.795 40.5199 27.9906C40.3244 28.1862 40.1125 28.3654 39.8844 28.5284C40.7644 28.6588 41.5629 28.8869 42.28 29.2129C43.0297 29.5388 43.6 29.9299 43.9912 30.3862C44.2519 30.7122 44.4312 31.0544 44.529 31.4129C44.6593 31.7715 44.7245 32.1463 44.7245 32.5374C44.7245 33.0915 44.6104 33.6782 44.3823 34.2975C44.1541 34.8842 43.8608 35.4708 43.5023 36.0575C43.4697 36.0901 43.4371 36.1553 43.4045 36.2531C43.4045 36.3183 43.3719 36.3672 43.3067 36.3998C43.2741 36.4324 43.2252 36.4487 43.16 36.4487C43.0948 36.4487 43.046 36.4812 43.0134 36.5464C42.9482 36.6442 42.8993 36.742 42.8667 36.8398C42.8341 36.9376 42.7852 37.0353 42.72 37.1331C42.4267 37.5242 42.117 37.8991 41.7911 38.2576C41.4978 38.5835 41.2044 38.8769 40.9111 39.1376C40.7155 39.3332 40.5688 39.5125 40.4711 39.6754C40.4059 39.8058 40.2592 39.9525 40.031 40.1154C39.7703 40.2458 39.5095 40.5066 39.2488 40.8977C39.0206 41.2888 38.7925 41.5659 38.5643 41.7288C38.4339 41.794 38.3036 41.8918 38.1732 42.0222C38.0754 42.1525 37.9613 42.2503 37.831 42.3155L34.702 44.6623C34.4086 44.8904 34.1642 45.0371 33.9686 45.1023C33.7731 45.1675 33.5286 45.2815 33.2353 45.4445C32.7464 45.7378 32.1271 46.0149 31.3774 46.2756C30.6604 46.569 29.7803 46.7645 28.7373 46.8623C28.2484 47.0253 27.7269 47.1394 27.1728 47.2046C26.6513 47.3023 26.1624 47.3512 25.7061 47.3512C25.2498 47.3512 24.8261 47.3023 24.435 47.2046C24.0764 47.1394 23.7994 47.009 23.6038 46.8134C23.5061 46.7157 23.4572 46.5038 23.4572 46.1779C23.2616 46.0475 23.1149 45.9334 23.0172 45.8356C22.6912 45.4771 22.4631 45.1512 22.3327 44.8578C22.2349 44.5971 22.186 44.3526 22.186 44.1245C22.186 43.8637 22.2349 43.5378 22.3327 43.1467C22.3979 42.7555 22.5282 42.397 22.7238 42.0711C22.952 41.7777 23.1801 41.5659 23.4083 41.4355C23.669 41.2725 23.9135 41.077 24.1416 40.8488C24.3698 40.6206 24.6142 40.4414 24.875 40.311C25.038 40.0503 25.152 39.8058 25.2172 39.5776C25.2824 39.3495 25.4291 39.2517 25.6572 39.2843V39.1865C25.8202 39.0561 26.081 38.8606 26.4395 38.5998C26.798 38.3391 27.0425 38.1924 27.1728 38.1598C27.238 38.1598 27.2869 38.1435 27.3195 38.1109C27.3521 38.1109 27.3847 38.0783 27.4173 38.0132C27.4499 37.948 27.4825 37.8991 27.5151 37.8665V37.8176C27.8736 37.7524 28.3951 37.5405 29.0796 37.182C29.764 36.7909 30.5789 36.3509 31.5241 35.862C32.4693 35.3731 33.496 34.9168 34.6042 34.493C35.745 34.0367 36.902 33.7271 38.0754 33.5641C38.1406 33.5641 38.2058 33.5641 38.271 33.5641C38.3362 33.5315 38.3851 33.5152 38.4177 33.5152C38.874 33.5152 39.1021 33.6293 39.1021 33.8575C39.1021 34.1508 38.7762 34.2649 38.1243 34.1997C35.4516 35.0145 33.2842 35.9109 31.6219 36.8887C29.9922 37.8339 28.9166 38.5021 28.3951 38.8932C28.1344 39.0887 27.6943 39.4636 27.0751 40.0177C26.4884 40.5392 25.918 41.1095 25.3639 41.7288C24.8424 42.3807 24.5328 42.9674 24.435 43.4889C24.4024 43.6193 24.3861 43.7822 24.3861 43.9778C24.3861 44.4993 24.5816 44.8578 24.9728 45.0534C25.3639 45.2815 25.8691 45.3956 26.4884 45.3956C26.9121 45.3956 27.3684 45.363 27.8573 45.2978C28.3462 45.2326 28.8351 45.1512 29.324 45.0534C30.4648 44.6623 31.6056 44.2385 32.7464 43.7822C33.9197 43.3259 35.0605 42.7881 36.1687 42.1688L36.5109 41.8755C36.5761 41.8429 36.7065 41.794 36.902 41.7288C37.0976 41.6962 37.3095 41.6147 37.5376 41.4844C37.6354 41.4192 37.7169 41.3214 37.7821 41.191C37.8799 41.0281 37.9939 40.8977 38.1243 40.7999C38.2873 40.7021 38.4177 40.6206 38.5154 40.5555C38.6458 40.4577 38.8088 40.3762 39.0043 40.311C39.0695 40.2784 39.1347 40.2132 39.1999 40.1154C39.2651 40.0177 39.3303 39.9688 39.3955 39.9688C39.6562 39.708 39.9007 39.431 40.1288 39.1376C40.3896 38.8443 40.6177 38.5509 40.8133 38.2576C41.2696 37.6383 41.6281 37.019 41.8889 36.3998C42.1496 35.7479 42.28 35.1286 42.28 34.5419C42.28 33.7597 42.0355 33.0752 41.5466 32.4885C41.1229 31.9344 40.4059 31.527 39.3955 31.2663C38.3851 30.9729 37.3095 30.8262 36.1687 30.8262C35.1583 30.8262 34.1805 30.9403 33.2353 31.1685C32.3226 31.364 31.5893 31.6737 31.0352 32.0974L30.8885 31.9507L33.8219 29.1151C34.2131 28.8543 34.7346 28.6588 35.3864 28.5284C36.0383 28.398 36.7228 28.3328 37.4398 28.3328C37.6354 28.3328 37.831 28.3328 38.0265 28.3328C38.2547 28.3328 38.4828 28.3491 38.711 28.3817C39.1999 28.121 39.7214 27.8276 40.2755 27.5017C40.8622 27.1758 41.4978 26.7846 42.1822 26.3283C43.8119 24.5683 44.6267 22.7919 44.6267 20.9993C44.6267 20.543 44.5779 20.1029 44.4801 19.6792C44.4475 19.614 44.3986 19.5488 44.3334 19.4837C44.3008 19.4185 44.2682 19.3533 44.2356 19.2881V19.2392C44.2356 19.174 44.2519 19.0925 44.2845 18.9948C44.3497 18.897 44.366 18.8318 44.3334 18.7992C44.2682 18.6688 44.1704 18.4733 44.0401 18.2125C43.9423 17.9518 43.8608 17.7562 43.7956 17.6258C43.763 17.5606 43.7467 17.4791 43.7467 17.3814C43.7467 17.251 43.7141 17.1532 43.6489 17.088C43.5837 16.9902 43.5023 16.9088 43.4045 16.8436C43.3067 16.7784 43.2252 16.7295 43.16 16.6969C43.1274 16.6317 43.0622 16.5991 42.9645 16.5991C42.8993 16.5665 42.8341 16.5339 42.7689 16.5013C42.5408 16.2406 42.3615 15.9961 42.2311 15.768C42.1333 15.5398 41.9052 15.3117 41.5466 15.0835L40.2266 16.0124C39.9007 16.2406 39.7214 16.5013 39.6888 16.7947C39.6562 17.0554 39.4606 17.2999 39.1021 17.528L38.3199 18.3103C38.2547 18.3429 38.1406 18.3592 37.9776 18.3592L37.5376 18.8481L37.4398 18.9948L37.1465 18.9459L36.4131 19.5814L36.1198 20.1192C35.8916 20.3474 35.6472 20.5755 35.3864 20.8037C35.1583 21.0319 34.9301 21.2763 34.702 21.5371C34.5716 21.6674 34.4249 21.7978 34.262 21.9282C34.099 22.026 33.9849 22.1563 33.9197 22.3193V22.4171H33.8708C33.8382 22.3845 33.7894 22.3519 33.7242 22.3193C33.6916 22.2867 33.6753 22.2867 33.6753 22.3193C33.3493 22.9386 32.893 23.4927 32.3063 23.9816L32.1108 24.3238C32.013 24.389 31.8826 24.4542 31.7197 24.5194C31.5893 24.5846 31.4915 24.666 31.4263 24.7638L31.2796 25.1061L30.5463 25.8883L30.2041 26.4261L29.5685 26.9639C29.3729 27.2247 29.1774 27.5017 28.9818 27.795C28.7862 28.0558 28.5744 28.3165 28.3462 28.5773L27.564 29.4573L26.5373 30.8262L26.0484 31.3152L25.6083 31.9996L25.2661 32.3419L24.9728 32.8796C24.875 33.01 24.7772 33.1567 24.6794 33.3197C24.5816 33.45 24.4676 33.5967 24.3372 33.7597C24.2394 33.8901 24.0601 34.1508 23.7994 34.5419C23.5386 34.9005 23.2453 35.3079 22.9194 35.7642C22.5934 36.1879 22.2838 36.5627 21.9905 36.8887C21.7297 37.2146 21.5667 37.3776 21.5015 37.3776C21.469 37.4102 21.2734 37.622 20.9149 38.0132C20.5889 38.4043 20.2141 38.8606 19.7904 39.3821C19.3667 39.871 18.9755 40.311 18.617 40.7021C18.2911 41.0933 18.1281 41.3051 18.1281 41.3377L16.7103 42.9022C16.5473 43.0652 16.3029 43.2281 15.9769 43.3911C15.6836 43.5867 15.4065 43.7659 15.1458 43.9289C15.0806 44.0593 14.8361 44.3363 14.4124 44.76C13.9887 45.1838 13.6954 45.4445 13.5324 45.5423L11.5279 46.569C11.3975 46.6668 11.2508 46.7645 11.0879 46.8623C10.9575 46.9601 10.8434 47.0579 10.7456 47.1557L9.62116 47.7424L9.4256 47.8401C9.393 47.9379 9.19744 48.0846 8.83891 48.2802C8.51297 48.5083 8.17074 48.7039 7.81221 48.8668C7.45368 49.0298 7.19293 49.1439 7.02996 49.2091L6.54106 49.4046C6.44328 49.4698 6.3292 49.5024 6.19882 49.5024C6.10104 49.535 6.00326 49.5839 5.90548 49.6491C5.57955 49.7795 5.25361 49.8772 4.92767 49.9424C4.60174 50.0402 4.2595 50.1217 3.90097 50.1869L3.02094 50.2847Z" fill="#AD343E"/>
<path d="M2.04438 49.8003C1.88141 49.7351 1.57177 49.6862 1.11546 49.6536C0.626557 49.621 0.349511 49.5558 0.284323 49.4581L0.382104 49.2136L0.675447 49.3114C0.936196 49.344 1.16435 49.3766 1.35991 49.4092C1.55548 49.4744 1.76733 49.5069 1.99549 49.5069C2.64736 49.5069 3.28294 49.3114 3.90222 48.9203C4.4889 48.5617 5.05929 48.2195 5.61339 47.8936C5.77635 47.7958 5.93932 47.698 6.10229 47.6002C6.26526 47.535 6.41193 47.4698 6.54231 47.4047L7.32455 46.6224H7.47122C7.53641 46.492 7.74827 46.3291 8.1068 46.1335C8.46533 45.9379 8.612 45.8076 8.54681 45.7424C8.57941 45.7424 8.612 45.7261 8.6446 45.6935C8.70978 45.6609 8.75867 45.6609 8.79127 45.6935C9.08461 45.3024 9.31277 45.0253 9.47573 44.8623C9.6387 44.732 9.89945 44.4875 10.258 44.129C10.4535 43.9334 10.7632 43.6075 11.1869 43.1512C11.6432 42.6949 12.0017 42.3852 12.2625 42.2223C12.3277 41.8963 12.5558 41.6193 12.947 41.3911C13.3381 41.163 13.6803 40.8696 13.9737 40.5111C13.8759 40.4133 13.9248 40.234 14.1203 39.9733C14.3485 39.7126 14.5766 39.4681 14.8048 39.2399C15.0655 39.0118 15.1959 38.8977 15.1959 38.8977L15.3915 38.4577C15.4567 38.3599 15.6196 38.1481 15.8804 37.8221C16.1737 37.4636 16.4671 37.1214 16.7604 36.7954C17.0538 36.4695 17.2167 36.3065 17.2493 36.3065C17.2819 36.1761 17.3797 36.0132 17.5427 35.8176C17.7382 35.5895 17.8197 35.4265 17.7871 35.3287C18.0479 35.1331 18.3575 34.8072 18.716 34.3509C19.0746 33.8946 19.3516 33.5523 19.5472 33.3242C19.9383 32.8353 20.2479 32.3627 20.4761 31.9064C20.7042 31.4501 21.0139 30.9937 21.405 30.5374C22.5458 29.1359 23.6866 27.7018 24.8273 26.2351C26.0007 24.7684 27.2393 23.4157 28.543 22.1772C29.0319 21.7209 29.4231 21.2645 29.7164 20.8082C30.0423 20.3519 30.466 19.9282 30.9875 19.5371C31.0853 19.4719 31.2809 19.2763 31.5742 18.9504C31.8676 18.6245 32.1609 18.3148 32.4543 18.0215C32.7476 17.7281 32.9269 17.5815 32.9921 17.5815C33.0572 17.4185 33.2202 17.2555 33.481 17.0926C33.7417 16.9296 33.9373 16.7829 34.0676 16.6525C34.3284 16.4244 34.5728 16.1799 34.801 15.9192C35.0618 15.6584 35.3225 15.414 35.5833 15.1858C35.844 14.9903 36.2351 14.7295 36.7566 14.4036C37.2781 14.0776 37.6529 13.8169 37.8811 13.6213L38.0278 13.5235C37.7018 13.1976 37.2618 12.9206 36.7077 12.6924C36.1536 12.4643 35.3225 12.285 34.2143 12.1546C33.8558 12.0894 33.4647 12.0568 33.0409 12.0568C32.6172 12.0568 32.2098 12.0568 31.8187 12.0568C31.6557 12.0568 31.4765 12.0405 31.2809 12.0079C31.1179 11.9428 30.955 11.8939 30.792 11.8613C30.6942 11.9591 30.5312 12.0079 30.3031 12.0079C30.2053 12.0079 30.0912 12.0079 29.9608 12.0079C29.8631 11.9753 29.749 11.9428 29.6186 11.9102L29.5208 12.1057H29.3742C29.2764 12.1057 29.0645 12.122 28.7386 12.1546C28.4126 12.1546 28.0867 12.1709 27.7608 12.2035C27.4674 12.2361 27.3045 12.3013 27.2719 12.3991C27.1089 12.3991 26.9459 12.4154 26.783 12.448C26.62 12.448 26.457 12.4317 26.2941 12.3991C26.0985 12.5946 25.6748 12.7413 25.0229 12.8391C24.371 12.9369 23.7518 13.0346 23.1651 13.1324C22.5784 13.1976 22.2524 13.3117 22.1873 13.4747C20.3946 13.768 18.5694 14.3547 16.7115 15.2347C14.8863 16.0822 13.1751 17.1577 11.578 18.4615C9.98094 19.7652 8.612 21.2482 7.47122 22.9105C6.36304 24.5728 5.64598 26.3492 5.32004 28.2396C5.28745 28.3374 5.27115 28.4514 5.27115 28.5818C5.27115 28.6796 5.27115 28.7774 5.27115 28.8752C5.27115 29.2011 5.28745 29.527 5.32004 29.853C5.38523 30.1789 5.40153 30.4234 5.36893 30.5863C5.30375 30.6515 5.25486 30.6841 5.22226 30.6841C5.09189 30.6189 5.0104 30.4885 4.97781 30.293C4.94522 30.0974 4.84744 29.9996 4.68447 29.9996L4.4889 30.0974C4.19556 29.9019 4.04889 29.5107 4.04889 28.9241C4.04889 28.7611 4.04889 28.6144 4.04889 28.484C4.08148 28.3537 4.11408 28.2233 4.14667 28.0929C4.37483 26.8869 4.81484 25.681 5.46671 24.475C6.11859 23.2365 6.90084 22.0631 7.81346 20.9549C8.75867 19.8141 9.70389 18.8363 10.6491 18.0215C11.0728 17.6629 11.5291 17.337 12.018 17.0437C12.5069 16.7177 12.9633 16.3918 13.387 16.0659C13.4522 16.0333 13.6314 15.9355 13.9248 15.7725C14.2181 15.5769 14.5115 15.3977 14.8048 15.2347C15.1307 15.0392 15.31 14.9251 15.3426 14.8925C15.6359 14.7947 16.0271 14.5991 16.516 14.3058C17.0049 13.9799 17.5264 13.6376 18.0805 13.2791C18.6671 12.9206 19.2049 12.6272 19.6938 12.3991C20.2153 12.1383 20.6391 12.0405 20.965 12.1057L21.0628 12.0568C21.2257 11.8613 21.6495 11.6494 22.3339 11.4213C23.0184 11.1931 23.7843 10.9812 24.6318 10.7857C25.5118 10.5901 26.3104 10.4434 27.0274 10.3457C27.7771 10.2153 28.2986 10.1664 28.5919 10.199L30.9875 10.0034C31.0527 9.97084 31.1668 9.95454 31.3298 9.95454C31.5579 9.95454 31.8024 9.98714 32.0631 10.0523C32.3565 10.0849 32.5683 10.1175 32.6987 10.1501C32.8291 10.1175 32.9432 10.1012 33.0409 10.1012C33.1713 10.0686 33.2854 10.0523 33.3832 10.0523C33.5461 10.0523 33.6928 10.0686 33.8232 10.1012C33.9862 10.1012 34.1328 10.1175 34.2632 10.1501C34.3284 10.1175 34.4262 10.1012 34.5566 10.1012C34.7521 10.1012 34.9477 10.1338 35.1432 10.199C35.3714 10.2316 35.5507 10.2642 35.681 10.2968C35.7788 10.199 35.8929 10.1501 36.0233 10.1501C36.1862 10.1501 36.3329 10.199 36.4633 10.2968C36.5937 10.362 36.8218 10.3946 37.1477 10.3946C37.3433 10.3946 37.5226 10.4272 37.6855 10.4923C37.8485 10.5575 38.0278 10.6064 38.2233 10.639L40.7656 11.4701L41.6457 12.1546L42.0857 11.9102C42.2487 11.8124 42.4931 11.6494 42.819 11.4213C43.145 11.1931 43.3894 11.079 43.5524 11.079L44.5791 10.4923C44.7421 10.4272 44.905 10.3783 45.068 10.3457C45.2636 10.2805 45.4428 10.2153 45.6058 10.1501C45.8665 10.0523 46.1273 9.95454 46.388 9.85676C46.6488 9.75898 46.9095 9.6775 47.1703 9.61231C47.3985 9.54712 47.6103 9.46564 47.8059 9.36786C48.034 9.27008 48.2622 9.23748 48.4903 9.27008C49.0118 8.94414 49.3704 8.78117 49.5659 8.78117C49.7289 8.78117 49.8919 8.81377 50.0548 8.87895C50.2504 8.91155 50.5111 8.96044 50.8371 9.02562H50.9838C51.0163 8.99303 51.163 8.97673 51.4238 8.97673C51.7823 8.97673 52.1897 9.00933 52.646 9.07451C53.1023 9.10711 53.3957 9.156 53.5261 9.22119L54.015 9.36786V9.31897C54.1453 9.31897 54.2594 9.35156 54.3572 9.41675C54.455 9.44934 54.5528 9.48194 54.6505 9.51453C55.3024 9.71009 55.9054 9.93825 56.4595 10.199L57.1928 10.639C57.3232 10.7694 57.5514 10.9975 57.8773 11.3235C58.2358 11.6168 58.4314 11.845 58.464 12.0079L58.2684 12.2035L58.0729 11.8613C57.8773 11.6983 57.698 11.519 57.5351 11.3235C57.3721 11.1279 57.1765 10.9649 56.9484 10.8346C56.4595 10.5086 55.9054 10.3457 55.2861 10.3457C54.6668 10.3457 54.0802 10.3294 53.5261 10.2968L52.5482 10.1501L51.6193 10.3946L51.4238 10.2968C51.326 10.362 51.0815 10.3946 50.6904 10.3946C50.3319 10.362 50.1689 10.3946 50.2015 10.4923C50.1689 10.4597 50.12 10.4434 50.0548 10.4434C50.0222 10.4109 50.0059 10.3783 50.0059 10.3457C49.4844 10.5738 49.1096 10.7368 48.8815 10.8346C48.6859 10.8998 48.5392 10.9487 48.4414 10.9812C48.3437 11.0138 48.1807 11.0627 47.9525 11.1279C47.757 11.1931 47.3985 11.3561 46.877 11.6168C46.2577 11.8776 45.6384 12.1546 45.0191 12.448C44.4324 12.7413 43.8294 13.0346 43.2102 13.328C43.6991 13.7191 44.1391 14.1591 44.5302 14.648C44.8236 14.9414 45.068 15.2836 45.2636 15.6747C45.2962 15.7073 45.3125 15.7725 45.3125 15.8703C45.3125 16.0984 45.3776 16.2614 45.508 16.3592C45.6384 16.457 45.7199 16.5874 45.7525 16.7503C45.8177 16.8807 45.834 17.0274 45.8014 17.1903C45.8014 17.3207 45.8177 17.4674 45.8503 17.6303C45.8503 17.6629 45.8991 17.7118 45.9969 17.777C46.0947 17.8096 46.1436 17.8585 46.1436 17.9237C46.1762 18.0215 46.1925 18.1356 46.1925 18.2659C46.1925 18.3637 46.1925 18.4615 46.1925 18.5593C46.1925 19.4067 45.9969 20.3519 45.6058 21.3949C45.2147 22.4053 44.6769 23.3016 43.9924 24.0839C43.862 24.2469 43.748 24.312 43.6502 24.2795C43.585 24.2143 43.4709 24.2632 43.3079 24.4261C43.2102 24.4913 43.0961 24.5565 42.9657 24.6217C42.8353 24.6869 42.7376 24.7847 42.6724 24.915L41.8901 26.2351L40.2278 27.0173C39.9671 27.1477 39.7389 27.3107 39.5434 27.5062C39.3478 27.7018 39.136 27.8811 38.9078 28.044C39.7878 28.1744 40.5864 28.4026 41.3034 28.7285C42.0531 29.0544 42.6235 29.4455 43.0146 29.9019C43.2754 30.2278 43.4546 30.57 43.5524 30.9286C43.6828 31.2871 43.748 31.6619 43.748 32.053C43.748 32.6071 43.6339 33.1938 43.4057 33.8131C43.1776 34.3998 42.8842 34.9865 42.5257 35.5732C42.4931 35.6058 42.4605 35.6709 42.4279 35.7687C42.4279 35.8339 42.3953 35.8828 42.3301 35.9154C42.2975 35.948 42.2487 35.9643 42.1835 35.9643C42.1183 35.9643 42.0694 35.9969 42.0368 36.0621C41.9716 36.1598 41.9227 36.2576 41.8901 36.3554C41.8575 36.4532 41.8086 36.551 41.7435 36.6487C41.4501 37.0399 41.1405 37.4147 40.8145 37.7732C40.5212 38.0992 40.2278 38.3925 39.9345 38.6533C39.7389 38.8488 39.5923 39.0281 39.4945 39.1911C39.4293 39.3214 39.2826 39.4681 39.0545 39.6311C38.7937 39.7614 38.533 40.0222 38.2722 40.4133C38.0441 40.8044 37.8159 41.0815 37.5878 41.2445C37.4574 41.3096 37.327 41.4074 37.1966 41.5378C37.0989 41.6682 36.9848 41.766 36.8544 41.8311L33.7254 44.1779C33.4321 44.406 33.1876 44.5527 32.9921 44.6179C32.7965 44.6831 32.552 44.7972 32.2587 44.9601C31.7698 45.2535 31.1505 45.5305 30.4009 45.7913C29.6838 46.0846 28.8038 46.2802 27.7608 46.378C27.2719 46.5409 26.7504 46.655 26.1963 46.7202C25.6748 46.818 25.1859 46.8669 24.7296 46.8669C24.2733 46.8669 23.8495 46.818 23.4584 46.7202C23.0999 46.655 22.8228 46.5246 22.6273 46.3291C22.5295 46.2313 22.4806 46.0194 22.4806 45.6935C22.285 45.5631 22.1384 45.449 22.0406 45.3513C21.7147 44.9927 21.4865 44.6668 21.3561 44.3734C21.2583 44.1127 21.2095 43.8682 21.2095 43.6401C21.2095 43.3793 21.2583 43.0534 21.3561 42.6623C21.4213 42.2712 21.5517 41.9126 21.7472 41.5867C21.9754 41.2933 22.2036 41.0815 22.4317 40.9511C22.6925 40.7881 22.9369 40.5926 23.1651 40.3644C23.3932 40.1363 23.6377 39.957 23.8984 39.8266C24.0614 39.5659 24.1755 39.3214 24.2407 39.0933C24.3058 38.8651 24.4525 38.7673 24.6807 38.7999V38.7021C24.8436 38.5718 25.1044 38.3762 25.4629 38.1155C25.8215 37.8547 26.0659 37.708 26.1963 37.6754C26.2615 37.6754 26.3104 37.6592 26.343 37.6266C26.3755 37.6266 26.4081 37.594 26.4407 37.5288C26.4733 37.4636 26.5059 37.4147 26.5385 37.3821V37.3332C26.897 37.268 27.4185 37.0562 28.103 36.6976C28.7875 36.3065 29.6023 35.8665 30.5475 35.3776C31.4927 34.8887 32.5194 34.4324 33.6276 34.0087C34.7684 33.5523 35.9255 33.2427 37.0989 33.0797C37.164 33.0797 37.2292 33.0797 37.2944 33.0797C37.3596 33.0471 37.4085 33.0309 37.4411 33.0309C37.8974 33.0309 38.1256 33.1449 38.1256 33.3731C38.1256 33.6664 37.7996 33.7805 37.1477 33.7153C34.4751 34.5302 32.3076 35.4265 30.6453 36.4043C29.0156 37.3495 27.94 38.0177 27.4185 38.4088C27.1578 38.6044 26.7178 38.9792 26.0985 39.5333C25.5118 40.0548 24.9414 40.6252 24.3873 41.2445C23.8658 41.8963 23.5562 42.483 23.4584 43.0045C23.4258 43.1349 23.4095 43.2979 23.4095 43.4934C23.4095 44.0149 23.6051 44.3734 23.9962 44.569C24.3873 44.7972 24.8925 44.9112 25.5118 44.9112C25.9355 44.9112 26.3918 44.8786 26.8807 44.8135C27.3697 44.7483 27.8586 44.6668 28.3475 44.569C29.4882 44.1779 30.629 43.7542 31.7698 43.2979C32.9432 42.8415 34.0839 42.3037 35.1921 41.6845L35.5344 41.3911C35.5995 41.3585 35.7299 41.3096 35.9255 41.2445C36.121 41.2119 36.3329 41.1304 36.5611 41C36.6588 40.9348 36.7403 40.837 36.8055 40.7067C36.9033 40.5437 37.0174 40.4133 37.1477 40.3155C37.3107 40.2178 37.4411 40.1363 37.5389 40.0711C37.6692 39.9733 37.8322 39.8918 38.0278 39.8266C38.093 39.794 38.1581 39.7288 38.2233 39.6311C38.2885 39.5333 38.3537 39.4844 38.4189 39.4844C38.6796 39.2236 38.9241 38.9466 39.1523 38.6533C39.413 38.3599 39.6412 38.0666 39.8367 37.7732C40.293 37.1539 40.6516 36.5347 40.9123 35.9154C41.1731 35.2635 41.3034 34.6442 41.3034 34.0576C41.3034 33.2753 41.059 32.5908 40.5701 32.0042C40.1464 31.4501 39.4293 31.0426 38.4189 30.7819C37.4085 30.4885 36.3329 30.3419 35.1921 30.3419C34.1817 30.3419 33.2039 30.456 32.2587 30.6841C31.3461 30.8797 30.6127 31.1893 30.0586 31.613L29.912 31.4664L32.8454 28.6307C33.2365 28.37 33.758 28.1744 34.4099 28.044C35.0618 27.9136 35.7462 27.8485 36.4633 27.8485C36.6588 27.8485 36.8544 27.8485 37.05 27.8485C37.2781 27.8485 37.5063 27.8648 37.7344 27.8974C38.2233 27.6366 38.7448 27.3433 39.2989 27.0173C39.8856 26.6914 40.5212 26.3003 41.2057 25.844C42.8353 24.0839 43.6502 22.3075 43.6502 20.5149C43.6502 20.0586 43.6013 19.6186 43.5035 19.1948C43.4709 19.1297 43.422 19.0645 43.3568 18.9993C43.3242 18.9341 43.2917 18.8689 43.2591 18.8037V18.7548C43.2591 18.6896 43.2754 18.6082 43.3079 18.5104C43.3731 18.4126 43.3894 18.3474 43.3568 18.3148C43.2917 18.1844 43.1939 17.9889 43.0635 17.7281C42.9657 17.4674 42.8842 17.2718 42.819 17.1414C42.7864 17.0763 42.7702 16.9948 42.7702 16.897C42.7702 16.7666 42.7376 16.6688 42.6724 16.6036C42.6072 16.5059 42.5257 16.4244 42.4279 16.3592C42.3301 16.294 42.2487 16.2451 42.1835 16.2125C42.1509 16.1473 42.0857 16.1147 41.9879 16.1147C41.9227 16.0822 41.8575 16.0496 41.7923 16.017C41.5642 15.7562 41.3849 15.5118 41.2545 15.2836C41.1568 15.0554 40.9286 14.8273 40.5701 14.5991L39.25 15.5281C38.9241 15.7562 38.7448 16.017 38.7122 16.3103C38.6796 16.5711 38.4841 16.8155 38.1256 17.0437L37.3433 17.8259C37.2781 17.8585 37.164 17.8748 37.0011 17.8748L36.5611 18.3637L36.4633 18.5104L36.1699 18.4615L35.4366 19.0971L35.1432 19.6349C34.9151 19.863 34.6706 20.0912 34.4099 20.3193C34.1817 20.5475 33.9536 20.7919 33.7254 21.0527C33.595 21.1831 33.4484 21.3134 33.2854 21.4438C33.1224 21.5416 33.0084 21.672 32.9432 21.8349V21.9327H32.8943C32.8617 21.9001 32.8128 21.8675 32.7476 21.8349C32.715 21.8023 32.6987 21.8023 32.6987 21.8349C32.3728 22.4542 31.9165 23.0083 31.3298 23.4972L31.1342 23.8394C31.0364 23.9046 30.9061 23.9698 30.7431 24.035C30.6127 24.1002 30.5149 24.1817 30.4498 24.2795L30.3031 24.6217L29.5697 25.4039L29.2275 25.9417L28.5919 26.4795C28.3964 26.7403 28.2008 27.0173 28.0052 27.3107C27.8097 27.5714 27.5978 27.8322 27.3697 28.0929L26.5874 28.9729L25.5607 30.3419L25.0718 30.8308L24.6318 31.5152L24.2896 31.8575L23.9962 32.3953C23.8984 32.5256 23.8006 32.6723 23.7029 32.8353C23.6051 32.9657 23.491 33.1123 23.3606 33.2753C23.2628 33.4057 23.0836 33.6664 22.8228 34.0576C22.5621 34.4161 22.2687 34.8235 21.9428 35.2798C21.6169 35.7035 21.3072 36.0784 21.0139 36.4043C20.7531 36.7302 20.5902 36.8932 20.525 36.8932C20.4924 36.9258 20.2968 37.1377 19.9383 37.5288C19.6124 37.9199 19.2375 38.3762 18.8138 38.8977C18.3901 39.3866 17.999 39.8266 17.6404 40.2178C17.3145 40.6089 17.1515 40.8207 17.1515 40.8533L15.7337 42.4178C15.5707 42.5808 15.3263 42.7438 15.0004 42.9067C14.707 43.1023 14.43 43.2816 14.1692 43.4445C14.104 43.5749 13.8596 43.8519 13.4359 44.2757C13.0121 44.6994 12.7188 44.9601 12.5558 45.0579L10.5513 46.0846C10.421 46.1824 10.2743 46.2802 10.1113 46.378C9.98094 46.4757 9.86686 46.5735 9.76908 46.6713L8.6446 47.258L8.44903 47.3558C8.41644 47.4535 8.22088 47.6002 7.86235 47.7958C7.53641 48.0239 7.19418 48.2195 6.83565 48.3825C6.47712 48.5454 6.21637 48.6595 6.0534 48.7247L5.5645 48.9203C5.46671 48.9854 5.35264 49.018 5.22226 49.018C5.12448 49.0506 5.0267 49.0995 4.92892 49.1647C4.60298 49.2951 4.27705 49.3929 3.95111 49.4581C3.62517 49.5558 3.28294 49.6373 2.92441 49.7025L2.04438 49.8003Z" fill="#FFC043"/>
<path d="M46.3 44.4766C46.3 44.5242 46.3 44.548 46.3 44.548C46.2619 44.548 46.2333 44.5242 46.2142 44.4766C46.0809 44.1337 46.0237 43.7669 46.0428 43.3764C46.0618 42.9859 46.1285 42.5858 46.2428 42.1763C46.3571 41.7667 46.5095 41.3571 46.7 40.9475C46.9 40.5284 47.1143 40.1236 47.3429 39.7331C47.0858 39.5616 46.8715 39.3473 46.7 39.0902C46.5381 38.8235 46.3952 38.5425 46.2714 38.2472C46.119 37.8948 45.9904 37.5376 45.8856 37.1756C45.7808 36.8137 45.6808 36.4612 45.5856 36.1183C45.4903 35.7754 45.3903 35.4516 45.2855 35.1468C45.1808 34.8325 45.0569 34.5515 44.9141 34.3038C44.9141 34.2657 44.9188 34.2514 44.9284 34.261C45.2236 34.4705 45.4522 34.7277 45.6142 35.0325C45.7856 35.3373 45.9237 35.6659 46.0285 36.0183C46.1428 36.3708 46.2476 36.7375 46.3428 37.1185C46.4381 37.49 46.5619 37.8471 46.7143 38.19C46.8191 38.4282 46.9334 38.652 47.0572 38.8616C47.1905 39.0616 47.3525 39.2521 47.543 39.4331L47.7287 39.133C47.662 39.0473 47.6096 38.9711 47.5715 38.9044C47.543 38.8282 47.543 38.7806 47.5715 38.7615C47.5906 38.7615 47.6239 38.7806 47.6716 38.8187C47.7192 38.8473 47.7716 38.8949 47.8287 38.9616C47.924 38.8568 47.9954 38.752 48.043 38.6472C47.8716 38.3329 47.7192 38.0043 47.5858 37.6614C47.462 37.3185 47.3429 36.9661 47.2286 36.6041C47.1334 36.2993 47.0334 36.004 46.9286 35.7183C46.8238 35.4325 46.6762 35.123 46.4857 34.7896C46.4762 34.7706 46.4619 34.7563 46.4428 34.7467C46.4333 34.7277 46.4333 34.7134 46.4428 34.7039C46.4619 34.6848 46.4952 34.6896 46.5428 34.7182C46.7429 34.8039 46.9191 34.9658 47.0715 35.2039C47.2334 35.4325 47.3763 35.685 47.5001 35.9612C47.6239 36.2374 47.7287 36.5136 47.8144 36.7899C47.9097 37.0566 47.9859 37.2709 48.043 37.4328L48.3431 38.2186C48.8765 37.4376 49.3861 36.6756 49.8718 35.9326C50.3671 35.1897 50.7386 34.461 50.9863 33.7466C51.0053 33.699 51.0148 33.6752 51.0148 33.6752C51.0339 33.6561 51.0434 33.6704 51.0434 33.718C51.0529 33.7561 51.0577 33.78 51.0577 33.7895C51.0101 34.3324 50.8672 34.8658 50.6291 35.3897C50.391 35.9136 50.1052 36.4374 49.7718 36.9613C49.448 37.4757 49.0956 37.9948 48.7146 38.5187C48.3335 39.0425 47.9811 39.5712 47.6573 40.1046C47.4477 40.4475 47.2525 40.8094 47.0715 41.1904C46.8905 41.5714 46.7333 41.9572 46.6 42.3477C46.4762 42.7287 46.3857 43.105 46.3285 43.4764C46.2714 43.8384 46.2619 44.1718 46.3 44.4766ZM49.1289 40.7332C48.986 40.9618 48.8336 41.2 48.6717 41.4476C48.5098 41.6857 48.3431 41.9191 48.1716 42.1477C48.0097 42.3763 47.8525 42.5954 47.7001 42.8049C47.5477 43.0145 47.4096 43.205 47.2858 43.3764C47.2382 43.4431 47.1953 43.4955 47.1572 43.5336C47.1191 43.5622 47.0953 43.5717 47.0858 43.5622C47.0667 43.5622 47.0667 43.5336 47.0858 43.4764C47.1048 43.4193 47.1239 43.3669 47.1429 43.3193C47.4477 42.5382 47.8287 41.7857 48.2859 41.0618C48.7527 40.3379 49.2289 39.6093 49.7147 38.8758C50.01 38.4186 50.31 37.9614 50.6148 37.5042C50.9196 37.0375 51.1863 36.5041 51.4149 35.904C51.4339 35.8564 51.4387 35.8278 51.4292 35.8183C51.4292 35.8088 51.4387 35.804 51.4578 35.804C51.4768 35.8135 51.4863 35.8326 51.4863 35.8612C51.4863 35.8897 51.4863 35.9183 51.4863 35.9469C51.4863 36.1564 51.4435 36.3946 51.3577 36.6613C51.272 36.928 51.1577 37.2137 51.0148 37.5185C50.872 37.8138 50.7148 38.1186 50.5434 38.4329C50.3719 38.7377 50.1957 39.033 50.0147 39.3188C49.8433 39.6045 49.6766 39.8712 49.5147 40.1189C49.3623 40.357 49.2337 40.5618 49.1289 40.7332ZM50.4862 37.3185C50.1528 37.8329 49.7861 38.3663 49.3861 38.9187C48.986 39.4712 48.5907 39.9807 48.2002 40.4475C48.1811 40.4665 48.1383 40.5141 48.0716 40.5903C48.0049 40.657 47.9573 40.6808 47.9287 40.6618C47.9097 40.6427 47.9144 40.5951 47.943 40.5189C47.9811 40.4332 48.0097 40.376 48.0287 40.3475C48.0954 40.2141 48.1764 40.0617 48.2716 39.8903C48.3669 39.7093 48.4669 39.5283 48.5717 39.3473C48.6765 39.1664 48.7812 38.9901 48.886 38.8187C49.0003 38.6472 49.1003 38.4996 49.186 38.3758C49.2241 38.3186 49.3003 38.1996 49.4146 38.0186C49.5289 37.8281 49.6575 37.609 49.8004 37.3614C49.9433 37.1042 50.0957 36.828 50.2576 36.5327C50.4195 36.2374 50.5672 35.9517 50.7005 35.6754C50.8339 35.3897 50.9482 35.1277 51.0434 34.8896C51.1387 34.642 51.1911 34.4467 51.2006 34.3038C51.2196 34.2086 51.2339 34.161 51.2434 34.161C51.2625 34.161 51.2768 34.1848 51.2863 34.2324C51.2958 34.2705 51.3054 34.2991 51.3149 34.3181C51.353 34.5181 51.353 34.7515 51.3149 35.0182C51.2768 35.2849 51.2149 35.5611 51.1291 35.8469C51.0529 36.1231 50.9529 36.3946 50.8291 36.6613C50.7148 36.9184 50.6005 37.1375 50.4862 37.3185ZM46.7286 35.6897C46.8334 36.0421 46.9334 36.4184 47.0286 36.8184C47.1334 37.209 47.2191 37.59 47.2858 37.9614C47.2953 37.9805 47.2953 38.0138 47.2858 38.0615C47.2858 38.0996 47.2763 38.1281 47.2572 38.1472C47.2382 38.1567 47.2096 38.1424 47.1715 38.1043C47.1334 38.0662 47.1096 38.0376 47.1001 38.0186C47.0524 37.9519 47 37.8662 46.9429 37.7614C46.8857 37.6566 46.8334 37.5471 46.7857 37.4328C46.7381 37.3185 46.6905 37.2042 46.6429 37.0899C46.6048 36.9756 46.5714 36.8756 46.5428 36.7899C46.5143 36.6946 46.4524 36.5327 46.3571 36.3041C46.2714 36.066 46.1666 35.8183 46.0428 35.5611C45.9285 35.304 45.8047 35.0611 45.6713 34.8325C45.5475 34.6039 45.4332 34.4467 45.3284 34.361C45.2713 34.3038 45.2522 34.2753 45.2713 34.2753C45.2808 34.2657 45.2998 34.2657 45.3284 34.2753C45.357 34.2848 45.3808 34.2943 45.3998 34.3038C45.5522 34.3515 45.6999 34.4277 45.8428 34.5324C45.9952 34.6372 46.1285 34.7563 46.2428 34.8896C46.3666 35.023 46.4666 35.1611 46.5428 35.304C46.6286 35.4373 46.6905 35.5659 46.7286 35.6897ZM46.8143 43.7336C46.7762 43.9146 46.7476 44.0765 46.7286 44.2194C46.7191 44.3527 46.7143 44.4718 46.7143 44.5766C46.7143 44.5956 46.7143 44.6194 46.7143 44.648C46.7143 44.6766 46.7 44.6909 46.6714 44.6909C46.6524 44.6909 46.6286 44.6766 46.6 44.648C46.5809 44.629 46.5667 44.6052 46.5571 44.5766C46.5381 44.529 46.519 44.4813 46.5 44.4337C46.4809 44.3861 46.4666 44.3337 46.4571 44.2765C46.4476 44.2099 46.4476 44.1289 46.4571 44.0336C46.4666 43.9289 46.4857 43.8003 46.5143 43.6479C46.5428 43.5241 46.5857 43.3717 46.6429 43.1907C46.7 43.0097 46.7619 42.8383 46.8286 42.6763C46.8953 42.5049 46.9572 42.3668 47.0143 42.262C47.081 42.1572 47.1334 42.1144 47.1715 42.1334C47.181 42.1429 47.181 42.1763 47.1715 42.2334C47.1715 42.2906 47.162 42.3572 47.1429 42.4334C47.1239 42.5001 47.1048 42.5668 47.0858 42.6335C47.0667 42.7001 47.0524 42.7478 47.0429 42.7763C46.9953 42.9383 46.9524 43.1002 46.9143 43.2621C46.8857 43.4145 46.8524 43.5717 46.8143 43.7336ZM55.5907 37.2185C55.4573 37.7328 55.2906 38.2662 55.0906 38.8187C54.9001 39.3711 54.7001 39.895 54.4905 40.3903C54.481 40.4094 54.4572 40.457 54.4191 40.5332C54.381 40.5999 54.3524 40.6284 54.3334 40.6189C54.3048 40.6189 54.2905 40.5808 54.2905 40.5046C54.3 40.4189 54.3095 40.3617 54.3191 40.3332C54.3286 40.2189 54.3476 40.076 54.3762 39.9045C54.4048 39.7331 54.4334 39.5569 54.4619 39.3759C54.5 39.1949 54.5381 39.0187 54.5762 38.8473C54.6239 38.6758 54.6667 38.5282 54.7048 38.4044C54.7239 38.3663 54.7525 38.271 54.7906 38.1186C54.8287 37.9662 54.8668 37.7852 54.9049 37.5757C54.9525 37.3566 55.0001 37.1185 55.0477 36.8613C55.0954 36.6041 55.1382 36.3517 55.1763 36.1041L55.0049 36.0612C54.9572 36.3946 54.8858 36.7375 54.7906 37.0899C54.7048 37.4328 54.6048 37.7805 54.4905 38.1329C54.3857 38.4758 54.281 38.8282 54.1762 39.1902C54.0714 39.5426 53.9762 39.895 53.8904 40.2474C53.8142 40.5808 53.7571 40.9285 53.719 41.2904C53.6809 41.6524 53.6666 42.0191 53.6761 42.3906C53.6857 42.7525 53.7285 43.1097 53.8047 43.4621C53.8809 43.805 53.9952 44.1241 54.1476 44.4194C54.1762 44.4861 54.1857 44.5194 54.1762 44.5194C54.1571 44.5194 54.1429 44.5147 54.1333 44.5051L54.1048 44.4766C53.8381 44.1622 53.638 43.8241 53.5047 43.4621C53.3808 43.0907 53.2999 42.7097 53.2618 42.3191C53.2332 41.9286 53.2427 41.5333 53.2904 41.1333C53.338 40.7332 53.4047 40.3427 53.4904 39.9617C53.6523 39.2568 53.8428 38.5806 54.0619 37.9329C54.281 37.2756 54.4667 36.6327 54.6191 36.004C54.0476 35.9088 53.5094 35.8231 53.0046 35.7469C52.5093 35.6611 52.0473 35.6611 51.6187 35.7469C51.5901 35.7469 51.5759 35.7421 51.5759 35.7326C51.5759 35.7135 51.5806 35.704 51.5901 35.704C51.6092 35.6945 51.6235 35.685 51.633 35.6754C51.9569 35.4849 52.2998 35.3802 52.6617 35.3611C53.0332 35.3421 53.4142 35.3611 53.8047 35.4183C54.2048 35.4659 54.6096 35.5326 55.0192 35.6183C55.4383 35.6945 55.8574 35.7373 56.2765 35.7469C56.5336 35.7564 56.8003 35.7373 57.0766 35.6897C57.3623 35.6326 57.6338 35.5516 57.891 35.4468C58.1577 35.3325 58.3958 35.1849 58.6053 35.0039C58.8244 34.8229 59.0006 34.6086 59.134 34.361C59.153 34.3134 59.1721 34.2895 59.1911 34.2895V34.3324V34.361C59.0863 34.7229 58.9244 35.023 58.7053 35.2611C58.4863 35.4897 58.2339 35.6754 57.9481 35.8183C57.6719 35.9612 57.3718 36.0612 57.048 36.1183C56.7337 36.166 56.4241 36.185 56.1193 36.1755C56.1669 36.4708 56.1669 36.8137 56.1193 37.2042C56.0812 37.5947 56.0193 37.99 55.9336 38.3901C55.8478 38.7901 55.7573 39.1711 55.6621 39.5331C55.5668 39.8855 55.4906 40.1712 55.4335 40.3903C55.3192 40.8475 55.1858 41.3143 55.0334 41.7905C54.881 42.2668 54.7429 42.6859 54.6191 43.0478C54.6001 43.0954 54.5762 43.1383 54.5477 43.1764C54.5286 43.2145 54.5096 43.2288 54.4905 43.2193C54.4715 43.2097 54.4619 43.1859 54.4619 43.1478C54.4715 43.1002 54.4762 43.0526 54.4762 43.0049C54.5048 42.2906 54.6096 41.5762 54.7906 40.8618C54.9715 40.1474 55.1668 39.4283 55.3763 38.7044C55.4906 38.3043 55.6002 37.8995 55.705 37.49C55.8193 37.0804 55.9002 36.6422 55.9478 36.1755C55.9002 36.166 55.8574 36.1612 55.8193 36.1612C55.7907 36.1612 55.7526 36.1612 55.705 36.1612C55.705 36.3517 55.6954 36.5374 55.6764 36.7184C55.6669 36.8994 55.6383 37.0661 55.5907 37.2185ZM55.9764 34.1752C56.3479 34.2229 56.7241 34.261 57.1051 34.2895C57.4861 34.3181 57.8148 34.3324 58.091 34.3324C58.1862 34.3324 58.2339 34.3467 58.2339 34.3753C58.2339 34.4134 58.1862 34.4467 58.091 34.4753C57.6052 34.6658 57.0908 34.7515 56.5479 34.7325C56.0145 34.7134 55.4716 34.661 54.9191 34.5753C54.5858 34.5277 54.2429 34.48 53.8904 34.4324C53.538 34.3848 53.157 34.3848 52.7474 34.4324C52.7093 34.4419 52.6903 34.4372 52.6903 34.4181C52.6903 34.3991 52.6998 34.3848 52.7189 34.3753C52.7379 34.3657 52.757 34.3515 52.776 34.3324C52.957 34.1991 53.1903 34.1133 53.4761 34.0752C53.7619 34.0276 54.0571 34.0086 54.3619 34.0181C54.6763 34.0181 54.9763 34.0371 55.262 34.0752C55.5478 34.1133 55.7859 34.1467 55.9764 34.1752ZM53.8333 34.6182C54.2333 34.6753 54.6382 34.7467 55.0477 34.8325C55.4668 34.9182 55.8716 35.0134 56.2622 35.1182C56.2812 35.1373 56.3193 35.1563 56.3765 35.1754C56.4431 35.1849 56.4765 35.2039 56.4765 35.2325C56.4765 35.2516 56.4479 35.2659 56.3908 35.2754C56.3336 35.2849 56.2907 35.2992 56.2622 35.3182C56.1764 35.3373 56.0669 35.3468 55.9336 35.3468C55.8097 35.3468 55.6764 35.3468 55.5335 35.3468C55.4002 35.3373 55.2668 35.3278 55.1335 35.3182C55.0001 35.3087 54.8858 35.2944 54.7906 35.2754C54.7239 35.2659 54.5572 35.2468 54.2905 35.2182C54.0333 35.1897 53.7476 35.1706 53.4332 35.1611C53.1189 35.1516 52.8141 35.1563 52.5188 35.1754C52.2331 35.1849 52.0283 35.223 51.9045 35.2897C51.8664 35.3087 51.8426 35.3182 51.833 35.3182H51.8187C51.8187 35.2801 51.8378 35.242 51.8759 35.2039C51.9711 35.0801 52.0997 34.9753 52.2617 34.8896C52.4331 34.8039 52.6093 34.7372 52.7903 34.6896C52.9713 34.642 53.1522 34.6134 53.3332 34.6039C53.5237 34.5943 53.6904 34.5991 53.8333 34.6182ZM54.3048 43.4621C54.3334 43.6241 54.3667 43.786 54.4048 43.9479C54.4524 44.1098 54.5096 44.267 54.5762 44.4194C54.6143 44.4956 54.6191 44.5337 54.5905 44.5337C54.5715 44.5337 54.5429 44.5242 54.5048 44.5051C54.4858 44.4956 54.4715 44.4813 54.4619 44.4623C54.3381 44.3194 54.2381 44.186 54.1619 44.0622C54.0952 43.9384 54.0381 43.7384 53.9905 43.4621C53.9714 43.3574 53.9571 43.224 53.9476 43.0621C53.9476 42.9002 53.9524 42.743 53.9619 42.5906C53.9714 42.4382 53.9857 42.3096 54.0047 42.2048C54.0238 42.1001 54.0524 42.0477 54.0905 42.0477C54.1 42.0477 54.1095 42.0715 54.119 42.1191C54.1381 42.1667 54.1524 42.2239 54.1619 42.2906C54.1714 42.3477 54.181 42.4096 54.1905 42.4763C54.2 42.5335 54.2048 42.5716 54.2048 42.5906C54.2238 42.7525 54.2381 42.9049 54.2476 43.0478C54.2667 43.1907 54.2857 43.3288 54.3048 43.4621ZM58.4482 34.5181C58.6577 34.3372 58.8339 34.1419 58.9768 33.9324C58.9959 33.8943 59.0149 33.8752 59.034 33.8752C59.0435 33.8752 59.0482 33.9085 59.0482 33.9752C59.0482 34.0133 59.0435 34.0467 59.034 34.0752C58.9959 34.2372 58.953 34.3657 58.9054 34.461C58.8577 34.5562 58.7434 34.6705 58.5625 34.8039C58.4958 34.861 58.4053 34.9182 58.291 34.9753C58.1767 35.023 58.0672 35.0658 57.9624 35.1039C57.8576 35.142 57.7624 35.1658 57.6766 35.1754C57.6004 35.1754 57.5576 35.1563 57.5481 35.1182C57.5481 35.1087 57.5623 35.0944 57.5909 35.0754C57.6195 35.0468 57.6528 35.0182 57.6909 34.9896C57.7386 34.9611 57.7814 34.9372 57.8195 34.9182C57.8576 34.8896 57.8862 34.8706 57.9052 34.861C58.0005 34.8134 58.091 34.761 58.1767 34.7039C58.272 34.6467 58.3624 34.5848 58.4482 34.5181ZM86.6455 39.5045C86.636 39.5331 86.617 39.5712 86.5884 39.6188C86.5693 39.6664 86.5455 39.7188 86.5169 39.776C86.4884 39.8236 86.4598 39.8664 86.4312 39.9045C86.4026 39.9331 86.3836 39.9426 86.3741 39.9331C86.3741 39.9331 86.3788 39.9093 86.3884 39.8617C86.3979 39.8141 86.4074 39.7617 86.4169 39.7045C86.436 39.6474 86.4503 39.595 86.4598 39.5474C86.4788 39.4902 86.4884 39.4521 86.4884 39.4331C86.6312 38.6711 86.6312 38.0138 86.4884 37.4614C86.3455 36.9089 86.1026 36.4565 85.7597 36.1041C85.4263 35.7516 85.012 35.4897 84.5167 35.3182C84.0309 35.1468 83.5166 35.0563 82.9736 35.0468C82.5831 35.0468 82.1973 35.0801 81.8163 35.1468C81.4449 35.2039 81.102 35.2801 80.7876 35.3754C80.4828 35.4706 80.2209 35.5754 80.0018 35.6897C79.7923 35.804 79.6589 35.9136 79.6018 36.0183C79.5351 36.1326 79.516 36.1183 79.5446 35.9755C79.6208 35.7278 79.8209 35.4992 80.1447 35.2897C80.4781 35.0801 80.8638 34.9087 81.302 34.7753C81.7401 34.642 82.1973 34.5562 82.6736 34.5181C83.1594 34.4705 83.5975 34.4943 83.9881 34.5896C84.2452 34.6467 84.5024 34.7277 84.7596 34.8325C85.0168 34.9372 85.2596 35.0658 85.4882 35.2182C85.7264 35.3611 85.9407 35.5373 86.1312 35.7469C86.3312 35.9469 86.4979 36.1803 86.6312 36.447C86.8884 36.9613 87.0123 37.4947 87.0027 38.0472C87.0027 38.5901 86.8837 39.0759 86.6455 39.5045ZM87.5742 39.4045C87.3933 39.9379 87.1504 40.4189 86.8456 40.8475C86.5503 41.2762 86.2312 41.6619 85.8883 42.0048C85.5454 42.3382 85.193 42.6287 84.831 42.8764C84.4691 43.124 84.1309 43.3336 83.8166 43.505C83.7214 43.5526 83.6404 43.5907 83.5737 43.6193C83.507 43.6479 83.4737 43.6526 83.4737 43.6336C83.4547 43.6241 83.4785 43.5955 83.5451 43.5479C83.6213 43.4907 83.6975 43.4336 83.7737 43.3764C84.3071 42.9478 84.8215 42.4954 85.3168 42.0191C85.8216 41.5429 86.2741 40.9999 86.6741 40.3903C86.8741 40.076 87.0265 39.7331 87.1313 39.3616C87.2361 38.9806 87.2885 38.5901 87.2885 38.19C87.2885 37.79 87.2313 37.3947 87.117 37.0042C87.0123 36.6136 86.8456 36.2517 86.617 35.9183C86.3122 35.4802 85.9407 35.1325 85.5025 34.8753C85.0739 34.6182 84.6119 34.4419 84.1166 34.3467C83.6213 34.2419 83.1117 34.2086 82.5879 34.2467C82.064 34.2848 81.5592 34.3753 81.0734 34.5181C80.9972 34.5372 80.9496 34.5515 80.9305 34.561C80.921 34.5705 80.9115 34.5658 80.9019 34.5467C80.8924 34.5277 80.9067 34.5086 80.9448 34.4896C80.9829 34.4705 81.0162 34.4515 81.0448 34.4324C81.2544 34.3181 81.5258 34.2133 81.8592 34.1181C82.1926 34.0228 82.5688 33.9657 82.9879 33.9466C83.407 33.9276 83.8547 33.9657 84.331 34.0609C84.8072 34.1467 85.2882 34.3181 85.774 34.5753C86.2979 34.861 86.7027 35.223 86.9884 35.6611C87.2837 36.0993 87.4885 36.5517 87.6028 37.0185C87.7171 37.4757 87.7647 37.9233 87.7457 38.3615C87.7266 38.7901 87.6695 39.1378 87.5742 39.4045ZM81.3591 44.3051C81.3115 44.2289 81.2496 44.1098 81.1734 43.9479C81.1067 43.7765 81.0543 43.5764 81.0162 43.3478C80.9972 43.2335 80.9829 43.105 80.9734 42.9621C80.9734 42.8192 80.9781 42.6859 80.9877 42.562C80.9972 42.4287 81.0115 42.3191 81.0305 42.2334C81.0496 42.1477 81.0782 42.1048 81.1163 42.1048C81.1258 42.1048 81.1353 42.1334 81.1448 42.1906C81.1639 42.2382 81.1782 42.2953 81.1877 42.362C81.2067 42.4287 81.2163 42.4954 81.2163 42.562C81.2258 42.6192 81.2306 42.662 81.2306 42.6906C81.2496 42.9383 81.2782 43.1859 81.3163 43.4336C81.3639 43.6812 81.4306 43.9193 81.5163 44.1479C81.8497 43.7384 82.2307 43.324 82.6593 42.9049C83.0879 42.4858 83.507 42.062 83.9166 41.6333C84.3262 41.1952 84.6977 40.7475 85.031 40.2903C85.3739 39.8331 85.6216 39.3616 85.774 38.8758C85.8788 38.5425 85.8978 38.1948 85.8311 37.8329C85.774 37.4709 85.6549 37.1423 85.474 36.847C85.293 36.5613 85.0358 36.3231 84.7024 36.1326C84.3691 35.9421 84.0023 35.8088 83.6023 35.7326C83.4404 35.704 83.2784 35.6802 83.1165 35.6611C82.9641 35.6421 82.8022 35.6326 82.6307 35.6326C82.6593 35.7754 82.6736 35.9326 82.6736 36.1041C82.6831 36.266 82.6831 36.4279 82.6736 36.5898C82.6641 36.7518 82.6498 36.9089 82.6307 37.0613C82.6117 37.2042 82.5879 37.3328 82.5593 37.4471C82.4259 37.9614 82.2688 38.4806 82.0878 39.0044C81.9068 39.5188 81.7163 40.0141 81.5163 40.4903C81.4973 40.5189 81.4687 40.5665 81.4306 40.6332C81.402 40.6904 81.3782 40.7189 81.3591 40.7189C81.3401 40.7189 81.3306 40.6808 81.3306 40.6046C81.3306 40.5284 81.3353 40.476 81.3449 40.4475C81.3544 40.3332 81.3734 40.1951 81.402 40.0331C81.4306 39.8617 81.4592 39.6902 81.4877 39.5188C81.5258 39.3473 81.5639 39.1806 81.602 39.0187C81.6401 38.8473 81.6782 38.7044 81.7163 38.5901C81.7354 38.5329 81.7687 38.3948 81.8163 38.1758C81.8735 37.9567 81.9306 37.7043 81.9878 37.4185C82.0449 37.1328 82.0973 36.8327 82.145 36.5184C82.2021 36.1945 82.2402 35.8993 82.2593 35.6326H82.0878C82.0688 36.004 82.0164 36.385 81.9306 36.7756C81.8449 37.1661 81.7401 37.5614 81.6163 37.9614C81.502 38.352 81.3782 38.7473 81.2448 39.1473C81.121 39.5474 81.0115 39.9474 80.9162 40.3475C80.8972 40.4332 80.8686 40.5808 80.8305 40.7904C80.8019 40.9999 80.7781 41.2381 80.7591 41.5048C80.74 41.7619 80.7305 42.0382 80.7305 42.3334C80.7305 42.6192 80.7495 42.8954 80.7876 43.1621C80.8353 43.4193 80.9019 43.6526 80.9877 43.8622C81.0734 44.0717 81.1972 44.2194 81.3591 44.3051ZM86.1026 39.2902C85.8931 39.7855 85.6025 40.2617 85.2311 40.7189C84.8691 41.1761 84.4738 41.6191 84.0452 42.0477C83.6166 42.4668 83.1737 42.8668 82.7165 43.2478C82.2688 43.6288 81.8592 43.9908 81.4877 44.3337C81.4115 44.4004 81.3115 44.4099 81.1877 44.3623C81.0734 44.3051 80.9877 44.2384 80.9305 44.1622C80.7305 43.8955 80.5829 43.5955 80.4876 43.2621C80.3924 42.9287 80.3352 42.5858 80.3162 42.2334C80.2971 41.8715 80.3066 41.5095 80.3447 41.1476C80.3924 40.7761 80.459 40.4189 80.5448 40.076C80.7353 39.2854 80.9496 38.5234 81.1877 37.79C81.4353 37.047 81.6163 36.3422 81.7306 35.6754C81.2163 35.7326 80.7543 35.8516 80.3447 36.0326C79.9447 36.2041 79.678 36.4136 79.5446 36.6613C79.5446 36.6803 79.5399 36.6898 79.5303 36.6898C79.5113 36.6898 79.5113 36.6517 79.5303 36.5755C79.6065 36.3088 79.7923 36.0802 80.0876 35.8897C80.3828 35.6897 80.7353 35.5373 81.1448 35.4325C81.5544 35.3182 81.9926 35.2516 82.4593 35.2325C82.9355 35.2135 83.3975 35.242 83.8452 35.3182C84.331 35.404 84.7501 35.5897 85.1025 35.8755C85.4644 36.1517 85.7454 36.4803 85.9454 36.8613C86.155 37.2328 86.2741 37.6328 86.3026 38.0615C86.3407 38.4901 86.2741 38.8997 86.1026 39.2902ZM83.0308 36.0469C83.1451 36.2946 83.1879 36.6184 83.1594 37.0185C83.1403 37.4185 83.0879 37.8376 83.0022 38.2758C82.9165 38.7044 82.8165 39.1187 82.7022 39.5188C82.5974 39.9188 82.5164 40.2427 82.4593 40.4903C82.345 40.9475 82.2069 41.4047 82.0449 41.8619C81.883 42.3191 81.7497 42.7192 81.6449 43.0621C81.5973 43.1954 81.5639 43.2621 81.5449 43.2621C81.5163 43.2621 81.502 43.2383 81.502 43.1907C81.502 43.1335 81.502 43.0811 81.502 43.0335C81.5306 42.3287 81.6306 41.6333 81.8021 40.9475C81.983 40.2617 82.1783 39.5664 82.3878 38.8616C82.5117 38.4329 82.6307 37.9853 82.745 37.5185C82.8593 37.0518 82.926 36.5613 82.9451 36.0469C82.9451 35.9802 82.9546 35.9421 82.9736 35.9326C82.9832 35.9326 82.9927 35.9469 83.0022 35.9755C83.0117 36.004 83.0213 36.0279 83.0308 36.0469ZM84.731 41.9762C84.7405 41.9858 84.7215 42.0239 84.6739 42.0905C84.6262 42.1572 84.5643 42.2334 84.4881 42.3191C84.4214 42.3953 84.35 42.4763 84.2738 42.562C84.2071 42.6382 84.1595 42.6906 84.1309 42.7192C83.9309 42.9192 83.7261 43.124 83.5166 43.3336C83.3165 43.5336 83.107 43.705 82.8879 43.8479L81.602 44.6623C81.583 44.6718 81.5544 44.6814 81.5163 44.6909C81.4877 44.7004 81.4639 44.7004 81.4449 44.6909C81.4258 44.6814 81.4163 44.6671 81.4163 44.648C81.4258 44.629 81.4353 44.6099 81.4449 44.5909C81.4544 44.5718 81.4687 44.5528 81.4877 44.5337C81.6497 44.4194 81.8306 44.2765 82.0307 44.1051C82.2402 43.9336 82.4545 43.7574 82.6736 43.5764C82.8355 43.4526 83.026 43.2955 83.2451 43.105C83.4737 42.9145 83.6928 42.7335 83.9023 42.562C84.1214 42.3906 84.3071 42.2477 84.4595 42.1334C84.6215 42.0096 84.712 41.9572 84.731 41.9762ZM95.0171 39.5045C95.0076 39.5331 94.9886 39.5712 94.96 39.6188C94.9409 39.6664 94.9171 39.7188 94.8886 39.776C94.86 39.8236 94.8314 39.8664 94.8028 39.9045C94.7743 39.9331 94.7552 39.9426 94.7457 39.9331C94.7457 39.9331 94.7504 39.9093 94.76 39.8617C94.7695 39.8141 94.779 39.7617 94.7885 39.7045C94.8076 39.6474 94.8219 39.595 94.8314 39.5474C94.8505 39.4902 94.86 39.4521 94.86 39.4331C95.0029 38.6711 95.0029 38.0138 94.86 37.4614C94.7171 36.9089 94.4742 36.4565 94.1313 36.1041C93.7979 35.7516 93.3836 35.4897 92.8883 35.3182C92.4025 35.1468 91.8882 35.0563 91.3452 35.0468C90.9547 35.0468 90.569 35.0801 90.188 35.1468C89.8165 35.2039 89.4736 35.2801 89.1593 35.3754C88.8545 35.4706 88.5925 35.5754 88.3734 35.6897C88.1639 35.804 88.0305 35.9136 87.9734 36.0183C87.9067 36.1326 87.8877 36.1183 87.9162 35.9755C87.9924 35.7278 88.1925 35.4992 88.5163 35.2897C88.8497 35.0801 89.2355 34.9087 89.6736 34.7753C90.1118 34.642 90.569 34.5562 91.0452 34.5181C91.531 34.4705 91.9691 34.4943 92.3597 34.5896C92.6168 34.6467 92.874 34.7277 93.1312 34.8325C93.3884 34.9372 93.6313 35.0658 93.8599 35.2182C94.098 35.3611 94.3123 35.5373 94.5028 35.7469C94.7028 35.9469 94.8695 36.1803 95.0029 36.447C95.26 36.9613 95.3839 37.4947 95.3743 38.0472C95.3743 38.5901 95.2553 39.0759 95.0171 39.5045ZM95.9458 39.4045C95.7649 39.9379 95.522 40.4189 95.2172 40.8475C94.9219 41.2762 94.6028 41.6619 94.2599 42.0048C93.917 42.3382 93.5646 42.6287 93.2026 42.8764C92.8407 43.124 92.5025 43.3336 92.1882 43.505C92.093 43.5526 92.012 43.5907 91.9453 43.6193C91.8787 43.6479 91.8453 43.6526 91.8453 43.6336C91.8263 43.6241 91.8501 43.5955 91.9168 43.5479C91.993 43.4907 92.0692 43.4336 92.1454 43.3764C92.6788 42.9478 93.1931 42.4954 93.6884 42.0191C94.1932 41.5429 94.6457 40.9999 95.0457 40.3903C95.2457 40.076 95.3982 39.7331 95.5029 39.3616C95.6077 38.9806 95.6601 38.5901 95.6601 38.19C95.6601 37.79 95.6029 37.3947 95.4886 37.0042C95.3839 36.6136 95.2172 36.2517 94.9886 35.9183C94.6838 35.4802 94.3123 35.1325 93.8741 34.8753C93.4455 34.6182 92.9836 34.4419 92.4883 34.3467C91.993 34.2419 91.4834 34.2086 90.9595 34.2467C90.4356 34.2848 89.9308 34.3753 89.445 34.5181C89.3688 34.5372 89.3212 34.5515 89.3021 34.561C89.2926 34.5705 89.2831 34.5658 89.2736 34.5467C89.264 34.5277 89.2783 34.5086 89.3164 34.4896C89.3545 34.4705 89.3879 34.4515 89.4164 34.4324C89.626 34.3181 89.8974 34.2133 90.2308 34.1181C90.5642 34.0228 90.9404 33.9657 91.3595 33.9466C91.7786 33.9276 92.2263 33.9657 92.7026 34.0609C93.1788 34.1467 93.6598 34.3181 94.1456 34.5753C94.6695 34.861 95.0743 35.223 95.3601 35.6611C95.6553 36.0993 95.8601 36.5517 95.9744 37.0185C96.0887 37.4757 96.1363 37.9233 96.1173 38.3615C96.0982 38.7901 96.0411 39.1378 95.9458 39.4045ZM89.7308 44.3051C89.6831 44.2289 89.6212 44.1098 89.545 43.9479C89.4783 43.7765 89.426 43.5764 89.3879 43.3478C89.3688 43.2335 89.3545 43.105 89.345 42.9621C89.345 42.8192 89.3498 42.6859 89.3593 42.562C89.3688 42.4287 89.3831 42.3191 89.4021 42.2334C89.4212 42.1477 89.4498 42.1048 89.4879 42.1048C89.4974 42.1048 89.5069 42.1334 89.5164 42.1906C89.5355 42.2382 89.5498 42.2953 89.5593 42.362C89.5784 42.4287 89.5879 42.4954 89.5879 42.562C89.5974 42.6192 89.6022 42.662 89.6022 42.6906C89.6212 42.9383 89.6498 43.1859 89.6879 43.4336C89.7355 43.6812 89.8022 43.9193 89.8879 44.1479C90.2213 43.7384 90.6023 43.324 91.0309 42.9049C91.4595 42.4858 91.8787 42.062 92.2882 41.6333C92.6978 41.1952 93.0693 40.7475 93.4027 40.2903C93.7456 39.8331 93.9932 39.3616 94.1456 38.8758C94.2504 38.5425 94.2694 38.1948 94.2028 37.8329C94.1456 37.4709 94.0265 37.1423 93.8456 36.847C93.6646 36.5613 93.4074 36.3231 93.074 36.1326C92.7407 35.9421 92.374 35.8088 91.9739 35.7326C91.812 35.704 91.65 35.6802 91.4881 35.6611C91.3357 35.6421 91.1738 35.6326 91.0023 35.6326C91.0309 35.7754 91.0452 35.9326 91.0452 36.1041C91.0547 36.266 91.0547 36.4279 91.0452 36.5898C91.0357 36.7518 91.0214 36.9089 91.0023 37.0613C90.9833 37.2042 90.9595 37.3328 90.9309 37.4471C90.7976 37.9614 90.6404 38.4806 90.4594 39.0044C90.2784 39.5188 90.0879 40.0141 89.8879 40.4903C89.8689 40.5189 89.8403 40.5665 89.8022 40.6332C89.7736 40.6904 89.7498 40.7189 89.7308 40.7189C89.7117 40.7189 89.7022 40.6808 89.7022 40.6046C89.7022 40.5284 89.7069 40.476 89.7165 40.4475C89.726 40.3332 89.745 40.1951 89.7736 40.0331C89.8022 39.8617 89.8308 39.6902 89.8593 39.5188C89.8974 39.3473 89.9355 39.1806 89.9736 39.0187C90.0117 38.8473 90.0498 38.7044 90.0879 38.5901C90.107 38.5329 90.1403 38.3948 90.188 38.1758C90.2451 37.9567 90.3023 37.7043 90.3594 37.4185C90.4166 37.1328 90.4689 36.8327 90.5166 36.5184C90.5737 36.1945 90.6118 35.8993 90.6309 35.6326H90.4594C90.4404 36.004 90.388 36.385 90.3023 36.7756C90.2165 37.1661 90.1118 37.5614 89.9879 37.9614C89.8736 38.352 89.7498 38.7473 89.6165 39.1473C89.4926 39.5474 89.3831 39.9474 89.2878 40.3475C89.2688 40.4332 89.2402 40.5808 89.2021 40.7904C89.1735 40.9999 89.1497 41.2381 89.1307 41.5048C89.1116 41.7619 89.1021 42.0382 89.1021 42.3334C89.1021 42.6192 89.1212 42.8954 89.1593 43.1621C89.2069 43.4193 89.2736 43.6526 89.3593 43.8622C89.445 44.0717 89.5688 44.2194 89.7308 44.3051ZM94.4742 39.2902C94.2647 39.7855 93.9742 40.2617 93.6027 40.7189C93.2407 41.1761 92.8454 41.6191 92.4168 42.0477C91.9882 42.4668 91.5453 42.8668 91.0881 43.2478C90.6404 43.6288 90.2308 43.9908 89.8593 44.3337C89.7831 44.4004 89.6831 44.4099 89.5593 44.3623C89.445 44.3051 89.3593 44.2384 89.3021 44.1622C89.1021 43.8955 88.9545 43.5955 88.8592 43.2621C88.764 42.9287 88.7068 42.5858 88.6878 42.2334C88.6687 41.8715 88.6782 41.5095 88.7163 41.1476C88.764 40.7761 88.8306 40.4189 88.9164 40.076C89.1069 39.2854 89.3212 38.5234 89.5593 37.79C89.807 37.047 89.9879 36.3422 90.1022 35.6754C89.5879 35.7326 89.1259 35.8516 88.7163 36.0326C88.3163 36.2041 88.0496 36.4136 87.9162 36.6613C87.9162 36.6803 87.9115 36.6898 87.9019 36.6898C87.8829 36.6898 87.8829 36.6517 87.9019 36.5755C87.9781 36.3088 88.1639 36.0802 88.4592 35.8897C88.7544 35.6897 89.1069 35.5373 89.5164 35.4325C89.926 35.3182 90.3642 35.2516 90.8309 35.2325C91.3071 35.2135 91.7691 35.242 92.2168 35.3182C92.7026 35.404 93.1217 35.5897 93.4741 35.8755C93.836 36.1517 94.117 36.4803 94.3171 36.8613C94.5266 37.2328 94.6457 37.6328 94.6742 38.0615C94.7123 38.4901 94.6457 38.8997 94.4742 39.2902ZM91.4024 36.0469C91.5167 36.2946 91.5596 36.6184 91.531 37.0185C91.5119 37.4185 91.4595 37.8376 91.3738 38.2758C91.2881 38.7044 91.1881 39.1187 91.0738 39.5188C90.969 39.9188 90.888 40.2427 90.8309 40.4903C90.7166 40.9475 90.5785 41.4047 90.4166 41.8619C90.2546 42.3191 90.1213 42.7192 90.0165 43.0621C89.9689 43.1954 89.9355 43.2621 89.9165 43.2621C89.8879 43.2621 89.8736 43.2383 89.8736 43.1907C89.8736 43.1335 89.8736 43.0811 89.8736 43.0335C89.9022 42.3287 90.0022 41.6333 90.1737 40.9475C90.3546 40.2617 90.5499 39.5664 90.7595 38.8616C90.8833 38.4329 91.0023 37.9853 91.1166 37.5185C91.2309 37.0518 91.2976 36.5613 91.3167 36.0469C91.3167 35.9802 91.3262 35.9421 91.3452 35.9326C91.3548 35.9326 91.3643 35.9469 91.3738 35.9755C91.3833 36.004 91.3929 36.0279 91.4024 36.0469ZM93.1026 41.9762C93.1121 41.9858 93.0931 42.0239 93.0455 42.0905C92.9978 42.1572 92.9359 42.2334 92.8597 42.3191C92.7931 42.3953 92.7216 42.4763 92.6454 42.562C92.5787 42.6382 92.5311 42.6906 92.5025 42.7192C92.3025 42.9192 92.0977 43.124 91.8882 43.3336C91.6881 43.5336 91.4786 43.705 91.2595 43.8479L89.9736 44.6623C89.9546 44.6718 89.926 44.6814 89.8879 44.6909C89.8593 44.7004 89.8355 44.7004 89.8165 44.6909C89.7974 44.6814 89.7879 44.6671 89.7879 44.648C89.7974 44.629 89.807 44.6099 89.8165 44.5909C89.826 44.5718 89.8403 44.5528 89.8593 44.5337C90.0213 44.4194 90.2022 44.2765 90.4023 44.1051C90.6118 43.9336 90.8261 43.7574 91.0452 43.5764C91.2071 43.4526 91.3976 43.2955 91.6167 43.105C91.8453 42.9145 92.0644 42.7335 92.2739 42.562C92.493 42.3906 92.6788 42.2477 92.8312 42.1334C92.9931 42.0096 93.0836 41.9572 93.1026 41.9762ZM97.4505 44.4766C97.4505 44.5242 97.4505 44.548 97.4505 44.548C97.4124 44.548 97.3838 44.5242 97.3648 44.4766C97.2314 44.1337 97.1743 43.7669 97.1933 43.3764C97.2124 42.9859 97.279 42.5858 97.3933 42.1763C97.5076 41.7667 97.66 41.3571 97.8505 40.9475C98.0506 40.5284 98.2649 40.1236 98.4935 39.7331C98.2363 39.5616 98.022 39.3473 97.8505 39.0902C97.6886 38.8235 97.5457 38.5425 97.4219 38.2472C97.2695 37.8948 97.1409 37.5376 97.0362 37.1756C96.9314 36.8137 96.8314 36.4612 96.7361 36.1183C96.6409 35.7754 96.5409 35.4516 96.4361 35.1468C96.3313 34.8325 96.2075 34.5515 96.0646 34.3038C96.0646 34.2657 96.0694 34.2514 96.0789 34.261C96.3742 34.4705 96.6028 34.7277 96.7647 35.0325C96.9361 35.3373 97.0743 35.6659 97.179 36.0183C97.2933 36.3708 97.3981 36.7375 97.4934 37.1185C97.5886 37.49 97.7124 37.8471 97.8648 38.19C97.9696 38.4282 98.0839 38.652 98.2077 38.8616C98.3411 39.0616 98.503 39.2521 98.6935 39.4331L98.8793 39.133C98.8126 39.0473 98.7602 38.9711 98.7221 38.9044C98.6935 38.8282 98.6935 38.7806 98.7221 38.7615C98.7411 38.7615 98.7745 38.7806 98.8221 38.8187C98.8697 38.8473 98.9221 38.8949 98.9793 38.9616C99.0745 38.8568 99.146 38.752 99.1936 38.6472C99.0221 38.3329 98.8697 38.0043 98.7364 37.6614C98.6126 37.3185 98.4935 36.9661 98.3792 36.6041C98.2839 36.2993 98.1839 36.004 98.0792 35.7183C97.9744 35.4325 97.8267 35.123 97.6362 34.7896C97.6267 34.7706 97.6124 34.7563 97.5934 34.7467C97.5838 34.7277 97.5838 34.7134 97.5934 34.7039C97.6124 34.6848 97.6458 34.6896 97.6934 34.7182C97.8934 34.8039 98.0696 34.9658 98.222 35.2039C98.384 35.4325 98.5268 35.685 98.6507 35.9612C98.7745 36.2374 98.8793 36.5136 98.965 36.7899C99.0602 37.0566 99.1364 37.2709 99.1936 37.4328L99.4936 38.2186C100.027 37.4376 100.537 36.6756 101.022 35.9326C101.518 35.1897 101.889 34.461 102.137 33.7466C102.156 33.699 102.165 33.6752 102.165 33.6752C102.184 33.6561 102.194 33.6704 102.194 33.718C102.203 33.7561 102.208 33.78 102.208 33.7895C102.161 34.3324 102.018 34.8658 101.78 35.3897C101.541 35.9136 101.256 36.4374 100.922 36.9613C100.599 37.4757 100.246 37.9948 99.8651 38.5187C99.4841 39.0425 99.1317 39.5712 98.8078 40.1046C98.5983 40.4475 98.403 40.8094 98.222 41.1904C98.0411 41.5714 97.8839 41.9572 97.7505 42.3477C97.6267 42.7287 97.5362 43.105 97.4791 43.4764C97.4219 43.8384 97.4124 44.1718 97.4505 44.4766ZM100.279 40.7332C100.137 40.9618 99.9842 41.2 99.8222 41.4476C99.6603 41.6857 99.4936 41.9191 99.3222 42.1477C99.1602 42.3763 99.0031 42.5954 98.8507 42.8049C98.6983 43.0145 98.5602 43.205 98.4363 43.3764C98.3887 43.4431 98.3459 43.4955 98.3078 43.5336C98.2697 43.5622 98.2458 43.5717 98.2363 43.5622C98.2173 43.5622 98.2173 43.5336 98.2363 43.4764C98.2554 43.4193 98.2744 43.3669 98.2935 43.3193C98.5983 42.5382 98.9793 41.7857 99.4365 41.0618C99.9032 40.3379 100.379 39.6093 100.865 38.8758C101.16 38.4186 101.461 37.9614 101.765 37.5042C102.07 37.0375 102.337 36.5041 102.565 35.904C102.584 35.8564 102.589 35.8278 102.58 35.8183C102.58 35.8088 102.589 35.804 102.608 35.804C102.627 35.8135 102.637 35.8326 102.637 35.8612C102.637 35.8897 102.637 35.9183 102.637 35.9469C102.637 36.1564 102.594 36.3946 102.508 36.6613C102.423 36.928 102.308 37.2137 102.165 37.5185C102.023 37.8138 101.865 38.1186 101.694 38.4329C101.522 38.7377 101.346 39.033 101.165 39.3188C100.994 39.6045 100.827 39.8712 100.665 40.1189C100.513 40.357 100.384 40.5618 100.279 40.7332ZM101.637 37.3185C101.303 37.8329 100.937 38.3663 100.537 38.9187C100.137 39.4712 99.7413 39.9807 99.3507 40.4475C99.3317 40.4665 99.2888 40.5141 99.2222 40.5903C99.1555 40.657 99.1079 40.6808 99.0793 40.6618C99.0602 40.6427 99.065 40.5951 99.0936 40.5189C99.1317 40.4332 99.1602 40.376 99.1793 40.3475C99.246 40.2141 99.3269 40.0617 99.4222 39.8903C99.5174 39.7093 99.6174 39.5283 99.7222 39.3473C99.827 39.1664 99.9318 38.9901 100.037 38.8187C100.151 38.6472 100.251 38.4996 100.337 38.3758C100.375 38.3186 100.451 38.1996 100.565 38.0186C100.679 37.8281 100.808 37.609 100.951 37.3614C101.094 37.1042 101.246 36.828 101.408 36.5327C101.57 36.2374 101.718 35.9517 101.851 35.6754C101.984 35.3897 102.099 35.1277 102.194 34.8896C102.289 34.642 102.342 34.4467 102.351 34.3038C102.37 34.2086 102.384 34.161 102.394 34.161C102.413 34.161 102.427 34.1848 102.437 34.2324C102.446 34.2705 102.456 34.2991 102.465 34.3181C102.504 34.5181 102.504 34.7515 102.465 35.0182C102.427 35.2849 102.365 35.5611 102.28 35.8469C102.203 36.1231 102.103 36.3946 101.98 36.6613C101.865 36.9184 101.751 37.1375 101.637 37.3185ZM97.8791 35.6897C97.9839 36.0421 98.0839 36.4184 98.1792 36.8184C98.2839 37.209 98.3697 37.59 98.4363 37.9614C98.4459 37.9805 98.4459 38.0138 98.4363 38.0615C98.4363 38.0996 98.4268 38.1281 98.4078 38.1472C98.3887 38.1567 98.3601 38.1424 98.322 38.1043C98.2839 38.0662 98.2601 38.0376 98.2506 38.0186C98.203 37.9519 98.1506 37.8662 98.0934 37.7614C98.0363 37.6566 97.9839 37.5471 97.9363 37.4328C97.8886 37.3185 97.841 37.2042 97.7934 37.0899C97.7553 36.9756 97.722 36.8756 97.6934 36.7899C97.6648 36.6946 97.6029 36.5327 97.5076 36.3041C97.4219 36.066 97.3171 35.8183 97.1933 35.5611C97.079 35.304 96.9552 35.0611 96.8218 34.8325C96.698 34.6039 96.5837 34.4467 96.4789 34.361C96.4218 34.3038 96.4027 34.2753 96.4218 34.2753C96.4313 34.2657 96.4504 34.2657 96.4789 34.2753C96.5075 34.2848 96.5313 34.2943 96.5504 34.3038C96.7028 34.3515 96.8504 34.4277 96.9933 34.5324C97.1457 34.6372 97.279 34.7563 97.3933 34.8896C97.5172 35.023 97.6172 35.1611 97.6934 35.304C97.7791 35.4373 97.841 35.5659 97.8791 35.6897ZM97.9648 43.7336C97.9267 43.9146 97.8982 44.0765 97.8791 44.2194C97.8696 44.3527 97.8648 44.4718 97.8648 44.5766C97.8648 44.5956 97.8648 44.6194 97.8648 44.648C97.8648 44.6766 97.8505 44.6909 97.822 44.6909C97.8029 44.6909 97.7791 44.6766 97.7505 44.648C97.7315 44.629 97.7172 44.6052 97.7077 44.5766C97.6886 44.529 97.6696 44.4813 97.6505 44.4337C97.6315 44.3861 97.6172 44.3337 97.6077 44.2765C97.5981 44.2099 97.5981 44.1289 97.6077 44.0336C97.6172 43.9289 97.6362 43.8003 97.6648 43.6479C97.6934 43.5241 97.7362 43.3717 97.7934 43.1907C97.8505 43.0097 97.9125 42.8383 97.9791 42.6763C98.0458 42.5049 98.1077 42.3668 98.1649 42.262C98.2316 42.1572 98.2839 42.1144 98.322 42.1334C98.3316 42.1429 98.3316 42.1763 98.322 42.2334C98.322 42.2906 98.3125 42.3572 98.2935 42.4334C98.2744 42.5001 98.2554 42.5668 98.2363 42.6335C98.2173 42.7001 98.203 42.7478 98.1935 42.7763C98.1458 42.9383 98.103 43.1002 98.0649 43.2621C98.0363 43.4145 98.0029 43.5717 97.9648 43.7336Z" fill="#FFC043"/>
<path d="M64.5511 34.5753C64.6177 34.5277 64.6463 34.5277 64.6368 34.5753C64.6273 34.6134 64.613 34.6467 64.5939 34.6753C64.5082 34.8087 64.3939 34.923 64.251 35.0182C64.1177 35.1135 63.97 35.1897 63.8081 35.2468C63.6557 35.304 63.5033 35.3468 63.3509 35.3754C63.1985 35.404 63.0652 35.4183 62.9509 35.4183C62.6556 35.4183 62.3508 35.3897 62.0365 35.3325C61.7221 35.2754 61.4078 35.2135 61.0935 35.1468C61.0744 35.1468 61.0411 35.1373 60.9935 35.1182C60.9458 35.0992 60.922 35.0801 60.922 35.0611C60.903 35.0325 60.9173 35.0087 60.9649 34.9896C61.022 34.9706 61.0601 34.9611 61.0792 34.9611C61.1459 34.942 61.2316 34.9277 61.3364 34.9182C61.4507 34.8991 61.5697 34.8849 61.6936 34.8753C61.8174 34.8658 61.9317 34.861 62.0365 34.861C62.1508 34.861 62.246 34.861 62.3222 34.861C62.5318 34.8801 62.7461 34.8896 62.9652 34.8896C63.1938 34.8896 63.4081 34.8801 63.6081 34.861C63.8081 34.842 63.9891 34.8087 64.151 34.761C64.3225 34.7134 64.4558 34.6515 64.5511 34.5753ZM64.7511 34.1038C64.7987 34.0848 64.813 34.0895 64.794 34.1181C64.7749 34.1467 64.7606 34.1657 64.7511 34.1752C64.5034 34.3943 64.232 34.5324 63.9367 34.5896C63.6414 34.6467 63.3319 34.6705 63.008 34.661C62.6937 34.642 62.3651 34.6134 62.0222 34.5753C61.6888 34.5277 61.3507 34.5134 61.0078 34.5324C60.8077 34.542 60.5982 34.5801 60.3791 34.6467C60.16 34.7134 59.9505 34.8087 59.7505 34.9325C59.56 35.0468 59.3837 35.1992 59.2218 35.3897C59.0694 35.5707 58.9504 35.7802 58.8646 36.0183C58.8456 36.0564 58.8313 36.0755 58.8218 36.0755C58.8218 36.0755 58.817 36.0707 58.8075 36.0612C58.8075 36.0517 58.8075 36.0374 58.8075 36.0183C58.8075 35.9993 58.8075 35.985 58.8075 35.9755C58.8646 35.6326 58.9694 35.3421 59.1218 35.1039C59.2742 34.8658 59.4552 34.6753 59.6647 34.5324C59.8743 34.38 60.1029 34.2705 60.3505 34.2038C60.5982 34.1371 60.8458 34.099 61.0935 34.0895C61.4364 34.08 61.7698 34.0943 62.0936 34.1324C62.427 34.161 62.7461 34.1895 63.0509 34.2181C63.3652 34.2467 63.6652 34.261 63.951 34.261C64.2367 34.2514 64.5034 34.1991 64.7511 34.1038ZM60.0505 35.2182C60.0695 35.2468 60.041 35.2944 59.9648 35.3611C59.8886 35.4278 59.8314 35.4706 59.7933 35.4897C59.7171 35.5468 59.6457 35.604 59.579 35.6611C59.5123 35.7088 59.4504 35.7707 59.3933 35.8469C59.3171 35.9326 59.2504 36.0183 59.1932 36.1041C59.1456 36.1898 59.098 36.285 59.0504 36.3898C59.0313 36.4565 59.0123 36.4898 58.9932 36.4898C58.9837 36.4898 58.9789 36.4565 58.9789 36.3898V36.2898C58.998 36.1469 59.0266 36.0183 59.0647 35.904C59.1028 35.7897 59.1694 35.6707 59.2647 35.5468C59.3028 35.4897 59.3647 35.4373 59.4504 35.3897C59.5457 35.3325 59.6362 35.2849 59.7219 35.2468C59.8076 35.2087 59.8838 35.1849 59.9505 35.1754C60.0172 35.1658 60.0505 35.1801 60.0505 35.2182ZM63.9081 35.5326C63.9558 35.5135 63.9748 35.5183 63.9653 35.5468C63.9653 35.5659 63.9558 35.5849 63.9367 35.604C63.8129 35.7469 63.6319 35.8516 63.3938 35.9183C63.1652 35.985 62.9175 36.0326 62.6508 36.0612C62.3841 36.0802 62.1174 36.085 61.8507 36.0755C61.5935 36.066 61.3792 36.0612 61.2078 36.0612C61.2649 36.2517 61.2887 36.4851 61.2792 36.7613C61.2792 37.028 61.2554 37.3185 61.2078 37.6328C61.1697 37.9376 61.1173 38.2472 61.0506 38.5615C60.9839 38.8758 60.9173 39.1711 60.8506 39.4473C61.1078 39.4664 61.3602 39.495 61.6078 39.5331C61.8555 39.5616 62.0936 39.5855 62.3222 39.6045C62.5508 39.614 62.7699 39.614 62.9794 39.6045C63.189 39.5855 63.3938 39.5378 63.5938 39.4616C63.6414 39.4426 63.6652 39.4473 63.6652 39.4759C63.6652 39.5045 63.6557 39.5283 63.6367 39.5474C63.4081 39.776 63.1557 39.9188 62.8794 39.976C62.6032 40.0331 62.3127 40.0522 62.0079 40.0331C61.7031 40.0141 61.3935 39.9807 61.0792 39.9331C60.7649 39.8855 60.4505 39.8664 60.1362 39.876C59.9362 39.8855 59.7362 39.9188 59.5361 39.976C59.3361 40.0331 59.1409 40.1189 58.9504 40.2332C58.7694 40.3475 58.5979 40.4903 58.436 40.6618C58.2836 40.8237 58.1598 41.019 58.0645 41.2476C58.055 41.2857 58.0407 41.3047 58.0217 41.3047C58.0026 41.3047 57.9931 41.2904 57.9931 41.2619C57.9931 41.2238 57.9978 41.1952 58.0074 41.1761C58.055 40.8999 58.136 40.6713 58.2503 40.4903C58.3646 40.3094 58.5027 40.1522 58.6646 40.0188C58.8265 39.333 59.0075 38.6472 59.2075 37.9614C59.4171 37.2756 59.5885 36.6279 59.7219 36.0183C59.7124 36.0183 59.679 36.0183 59.6219 36.0183C59.5742 36.0088 59.5504 35.9945 59.5504 35.9755C59.5504 35.9564 59.5647 35.9374 59.5933 35.9183C59.6219 35.8993 59.6504 35.8802 59.679 35.8612C60.0791 35.6707 60.4886 35.5707 60.9077 35.5611C61.3268 35.5421 61.7555 35.5516 62.1936 35.5897C62.4699 35.6088 62.7461 35.6278 63.0223 35.6469C63.3081 35.6659 63.6033 35.6278 63.9081 35.5326ZM60.7649 36.0612C60.7744 36.2993 60.7744 36.5232 60.7649 36.7327C60.7553 36.9423 60.7268 37.128 60.6791 37.2899C60.5934 37.6328 60.4982 37.99 60.3934 38.3615C60.2886 38.733 60.1696 39.0949 60.0362 39.4473C60.0743 39.4378 60.1172 39.4331 60.1648 39.4331C60.2124 39.4331 60.26 39.4331 60.3077 39.4331L60.522 38.7615C60.6553 38.3424 60.7744 37.9091 60.8792 37.4614C60.9935 37.0137 61.0649 36.547 61.0935 36.0612H60.7649ZM60.1505 36.0469C60.0743 36.6184 59.9362 37.2042 59.7362 37.8043C59.5361 38.4044 59.3552 39.0187 59.1932 39.6474C59.2694 39.6188 59.3361 39.595 59.3933 39.5759C59.4599 39.5474 59.5219 39.5235 59.579 39.5045C59.6266 39.314 59.6743 39.133 59.7219 38.9616C59.7695 38.7806 59.8171 38.6234 59.8648 38.4901C59.8838 38.4329 59.9171 38.3234 59.9648 38.1615C60.0124 37.9995 60.0648 37.8043 60.1219 37.5757C60.1791 37.3471 60.2362 37.0994 60.2934 36.8327C60.3505 36.566 60.3934 36.3041 60.422 36.0469H60.1505ZM63.4652 39.9331C63.5128 39.895 63.5319 39.8998 63.5224 39.9474C63.5224 39.9855 63.5128 40.0141 63.4938 40.0331C63.4176 40.1665 63.3176 40.2855 63.1938 40.3903C63.0795 40.4951 62.9556 40.5808 62.8223 40.6475C62.6889 40.7046 62.5508 40.7523 62.4079 40.7904C62.2746 40.8189 62.1555 40.8285 62.0507 40.8189C61.7555 40.7999 61.4459 40.7618 61.1221 40.7046C60.7982 40.638 60.4886 40.5713 60.1934 40.5046C60.1743 40.4951 60.141 40.4856 60.0934 40.476C60.0553 40.457 60.0362 40.4332 60.0362 40.4046C60.0267 40.3856 60.041 40.3665 60.0791 40.3475C60.1267 40.3189 60.16 40.3046 60.1791 40.3046C60.2458 40.2855 60.3267 40.2713 60.422 40.2617C60.5267 40.2522 60.6315 40.2427 60.7363 40.2332C60.8506 40.2236 60.9554 40.2236 61.0506 40.2332C61.1554 40.2332 61.2411 40.2379 61.3078 40.2474C61.4792 40.2665 61.665 40.276 61.865 40.276C62.0746 40.276 62.2794 40.2617 62.4794 40.2332C62.6889 40.2046 62.8794 40.1665 63.0509 40.1189C63.2223 40.0712 63.3604 40.0093 63.4652 39.9331ZM63.7795 42.6192C63.7986 42.6097 63.8081 42.6144 63.8081 42.6335C63.8081 42.6525 63.8034 42.6716 63.7938 42.6906C63.5843 42.9192 63.3509 43.0621 63.0937 43.1192C62.8461 43.1764 62.5842 43.2002 62.3079 43.1907C62.0317 43.1716 61.7507 43.1335 61.465 43.0764C61.1792 43.0192 60.8982 42.9907 60.622 42.9907C60.2696 42.9811 59.9076 43.0621 59.5361 43.2335C59.1742 43.405 58.8694 43.7003 58.6217 44.1194C58.5932 44.1575 58.5741 44.1765 58.5646 44.1765C58.5551 44.1765 58.5503 44.1622 58.5503 44.1337C58.5598 44.1051 58.5646 44.086 58.5646 44.0765C58.6027 43.9717 58.636 43.8908 58.6646 43.8336C58.7027 43.7765 58.7408 43.7098 58.7789 43.6336C58.6455 43.3669 58.5503 43.1002 58.4931 42.8335C58.436 42.5573 58.4027 42.2715 58.3931 41.9762C58.3931 41.7572 58.4122 41.5952 58.4503 41.4905C58.4884 41.3857 58.617 41.2762 58.8361 41.1619C59.198 40.9714 59.5838 40.8761 59.9933 40.8761C60.4029 40.8761 60.8125 40.8999 61.2221 40.9475C61.4888 40.9761 61.7555 40.9999 62.0222 41.019C62.2889 41.0285 62.5651 40.9856 62.8509 40.8904C62.8985 40.8713 62.9175 40.8809 62.908 40.919C62.8985 40.9475 62.8842 40.9714 62.8651 40.9904C62.7413 41.1428 62.5699 41.2476 62.3508 41.3047C62.1317 41.3619 61.8983 41.4 61.6507 41.419C61.403 41.4286 61.1649 41.4286 60.9363 41.419C60.7077 41.4095 60.5267 41.4095 60.3934 41.419H60.3077C60.241 41.6476 60.1696 41.8667 60.0934 42.0763C60.0267 42.2763 59.96 42.4715 59.8933 42.662C60.0362 42.6144 60.1696 42.5811 60.2934 42.562C60.4267 42.5335 60.5648 42.5239 60.7077 42.5335C60.9839 42.543 61.2602 42.5716 61.5364 42.6192C61.8126 42.6668 62.0793 42.7097 62.3365 42.7478C62.6032 42.7763 62.8556 42.7906 63.0937 42.7906C63.3414 42.7811 63.57 42.724 63.7795 42.6192ZM59.8219 41.4047C59.7647 41.3952 59.6743 41.3857 59.5504 41.3762C59.4361 41.3571 59.3075 41.3571 59.1647 41.3762C59.0694 41.3857 58.9885 41.4238 58.9218 41.4905C58.8551 41.5571 58.817 41.6381 58.8075 41.7334C58.7884 42.0191 58.7932 42.2953 58.8218 42.562C58.8503 42.8192 58.898 43.0859 58.9646 43.3621L59.1361 43.1478C59.1266 43.0335 59.1218 42.9097 59.1218 42.7763C59.1218 42.643 59.1266 42.5239 59.1361 42.4192C59.1551 42.3049 59.1742 42.2144 59.1932 42.1477C59.2123 42.081 59.2361 42.0477 59.2647 42.0477C59.2837 42.0477 59.298 42.0715 59.3075 42.1191C59.3171 42.1667 59.3266 42.2191 59.3361 42.2763C59.3456 42.3334 59.3504 42.3906 59.3504 42.4477C59.3599 42.5049 59.3647 42.5477 59.3647 42.5763C59.3742 42.6335 59.379 42.6906 59.379 42.7478C59.3885 42.7954 59.398 42.8478 59.4076 42.9049C59.4552 42.8764 59.498 42.8478 59.5361 42.8192C59.5742 42.7906 59.6171 42.7668 59.6647 42.7478C59.6743 42.3191 59.7266 41.8715 59.8219 41.4047ZM63.6795 43.0907C63.6795 43.1192 63.67 43.1526 63.651 43.1907C63.5938 43.324 63.5128 43.4431 63.4081 43.5479C63.3033 43.6431 63.189 43.7241 63.0652 43.7908C62.9413 43.8574 62.8128 43.9098 62.6794 43.9479C62.5556 43.9765 62.446 43.9908 62.3508 43.9908C62.0174 43.9908 61.7126 43.9527 61.4364 43.8765C61.1697 43.8003 60.903 43.7146 60.6363 43.6193C60.6172 43.6098 60.5887 43.5955 60.5506 43.5764C60.5125 43.5574 60.4886 43.5336 60.4791 43.505C60.4696 43.486 60.4886 43.4669 60.5363 43.4479C60.5839 43.4288 60.6172 43.4193 60.6363 43.4193C60.6934 43.4098 60.7649 43.405 60.8506 43.405C60.9458 43.3955 61.0411 43.3907 61.1363 43.3907C61.2411 43.3907 61.3411 43.3955 61.4364 43.405C61.5316 43.405 61.6126 43.405 61.6793 43.405C61.8412 43.4145 62.0174 43.424 62.2079 43.4336C62.3984 43.4336 62.5794 43.424 62.7508 43.405C62.9318 43.3764 63.0985 43.3383 63.2509 43.2907C63.4128 43.2431 63.5367 43.1764 63.6224 43.0907C63.651 43.0621 63.67 43.0621 63.6795 43.0907ZM59.2361 40.5189C59.2361 40.5475 59.2028 40.5903 59.1361 40.6475C59.0789 40.7046 59.0075 40.7666 58.9218 40.8332C58.8456 40.8999 58.7694 40.9618 58.6932 41.019C58.6265 41.0761 58.5836 41.1142 58.5646 41.1333C58.4884 41.2095 58.4169 41.2857 58.3503 41.3619C58.2836 41.4286 58.2264 41.5143 58.1788 41.6191C58.1312 41.7048 58.1074 41.7191 58.1074 41.6619C58.1074 41.5952 58.1121 41.5476 58.1217 41.519C58.1407 41.4428 58.1693 41.3428 58.2074 41.219C58.255 41.0857 58.3407 40.9571 58.4646 40.8332C58.5217 40.7856 58.5884 40.738 58.6646 40.6904C58.7503 40.6332 58.8313 40.5903 58.9075 40.5618C58.9932 40.5237 59.0647 40.4999 59.1218 40.4903C59.1885 40.4808 59.2266 40.4903 59.2361 40.5189ZM63.1509 44.0622C63.1604 44.1003 63.1461 44.1289 63.108 44.1479C62.9937 44.2432 62.8318 44.3146 62.6223 44.3623C62.4222 44.4004 62.2031 44.4289 61.965 44.448C61.7364 44.467 61.5126 44.4766 61.2935 44.4766C61.0744 44.4766 60.8982 44.4766 60.7649 44.4766C60.5267 44.4766 60.2743 44.4623 60.0076 44.4337C59.7505 44.3956 59.5266 44.3527 59.3361 44.3051C59.3171 44.2956 59.2885 44.2908 59.2504 44.2908C59.2218 44.2813 59.2075 44.267 59.2075 44.248C59.2075 44.2289 59.2218 44.2146 59.2504 44.2051C59.2885 44.186 59.3171 44.1718 59.3361 44.1622C59.6981 44.0479 60.0648 44.0003 60.4363 44.0194C60.8173 44.0289 61.1983 44.0575 61.5793 44.1051C61.8174 44.1432 62.0555 44.1718 62.2936 44.1908C62.5413 44.2099 62.7985 44.167 63.0652 44.0622C63.1223 44.0432 63.1509 44.0432 63.1509 44.0622ZM59.7647 43.5764C59.7647 43.605 59.7314 43.6431 59.6647 43.6907C59.6076 43.7288 59.5409 43.7717 59.4647 43.8193C59.3885 43.867 59.3123 43.9146 59.2361 43.9622C59.1694 44.0003 59.1218 44.0289 59.0932 44.0479C59.017 44.1146 58.9504 44.1718 58.8932 44.2194C58.8361 44.267 58.7789 44.3289 58.7218 44.4051C58.6741 44.4527 58.6408 44.4766 58.6217 44.4766H58.6074V44.4623C58.6074 44.4623 58.6074 44.4527 58.6074 44.4337C58.6551 44.2908 58.7027 44.1718 58.7503 44.0765C58.8075 43.9813 58.9027 43.8812 59.0361 43.7765C59.0932 43.7384 59.1599 43.7003 59.2361 43.6622C59.3123 43.6145 59.3885 43.5812 59.4647 43.5622C59.5409 43.5336 59.6076 43.5193 59.6647 43.5193C59.7219 43.5193 59.7552 43.5383 59.7647 43.5764ZM65.3064 44.7052C65.2397 44.7718 65.1969 44.8004 65.1778 44.7909C65.1588 44.7814 65.1588 44.7576 65.1778 44.7195C65.1969 44.6909 65.2112 44.6671 65.2207 44.648C65.2969 44.5623 65.354 44.5004 65.3921 44.4623C65.4398 44.4146 65.4922 44.367 65.5493 44.3194C65.3207 44.0146 65.154 43.6907 65.0492 43.3478C64.9445 42.9954 64.8825 42.6335 64.8635 42.262C64.8444 41.8905 64.8587 41.5143 64.9064 41.1333C64.9635 40.7523 65.0349 40.3808 65.1207 40.0188C65.2921 39.3045 65.4874 38.6091 65.7065 37.9329C65.9351 37.2471 66.1256 36.5898 66.278 35.9612C65.9732 36.0183 65.6969 36.0945 65.4493 36.1898C65.2112 36.285 65.054 36.3898 64.9778 36.5041C64.9492 36.5517 64.9206 36.5708 64.8921 36.5613C64.873 36.5517 64.8825 36.5089 64.9206 36.4327C64.9968 36.2707 65.135 36.1279 65.335 36.004C65.535 35.8707 65.7636 35.7612 66.0208 35.6754C66.278 35.5897 66.5542 35.523 66.8495 35.4754C67.1543 35.4278 67.4448 35.4087 67.721 35.4183C68.3401 35.4373 68.8545 35.5564 69.2641 35.7754C69.6832 35.9945 69.8975 36.3184 69.907 36.747C69.907 37.0137 69.8118 37.2804 69.6213 37.5471C69.4403 37.8138 69.2164 38.0662 68.9497 38.3043C68.6926 38.5329 68.4163 38.7425 68.1211 38.933C67.8258 39.114 67.5734 39.2568 67.3638 39.3616L67.3067 39.5616C67.4495 39.4378 67.64 39.3378 67.8782 39.2616C68.1163 39.1854 68.3639 39.1473 68.6211 39.1473C68.8878 39.1473 69.145 39.1949 69.3927 39.2902C69.6498 39.3759 69.8737 39.5188 70.0642 39.7188C70.3213 40.0046 70.4833 40.3332 70.5499 40.7046C70.6261 41.0666 70.6071 41.4238 70.4928 41.7762C70.388 42.1286 70.2118 42.4192 69.9642 42.6478C69.7165 42.8668 69.4641 43.0335 69.2069 43.1478C69.1783 43.1669 69.126 43.1907 69.0498 43.2193C68.9736 43.2383 68.9259 43.2335 68.9069 43.205C68.8974 43.1859 68.9212 43.1526 68.9783 43.105C69.0355 43.0478 69.0783 43.0097 69.1069 42.9907C69.3641 42.8192 69.5832 42.5858 69.7641 42.2906C69.9451 41.9953 70.0546 41.6905 70.0927 41.3762C70.1404 41.0523 70.107 40.7427 69.9927 40.4475C69.8784 40.1522 69.6546 39.9236 69.3212 39.7617C69.1879 39.695 69.0117 39.6474 68.7926 39.6188C68.5735 39.5807 68.3544 39.5712 68.1353 39.5902C67.9163 39.5997 67.7115 39.6474 67.521 39.7331C67.34 39.8188 67.2114 39.9522 67.1352 40.1331C67.3067 40.0284 67.5019 39.9474 67.721 39.8903C67.9401 39.8331 68.1592 39.8093 68.3782 39.8188C68.6068 39.8188 68.8211 39.8617 69.0212 39.9474C69.2212 40.0236 69.3879 40.1427 69.5212 40.3046C69.6832 40.5046 69.7737 40.7142 69.7927 40.9333C69.8213 41.1523 69.7975 41.3666 69.7213 41.5762C69.6546 41.7857 69.5403 41.981 69.3784 42.162C69.226 42.343 69.0498 42.4954 68.8497 42.6192C68.583 42.7811 68.2877 42.943 67.9639 43.105C67.64 43.2574 67.3162 43.4193 66.9923 43.5907C66.6685 43.7527 66.3589 43.9289 66.0637 44.1194C65.7684 44.3003 65.516 44.4956 65.3064 44.7052ZM67.0209 40.6189C66.8495 41.0476 66.7066 41.4809 66.5923 41.9191C66.4875 42.3477 66.3685 42.743 66.2351 43.105C66.1875 43.2288 66.1541 43.2859 66.1351 43.2764C66.1065 43.2669 66.0922 43.2431 66.0922 43.205C66.0922 43.1573 66.0922 43.1097 66.0922 43.0621C66.1208 42.3382 66.2256 41.6238 66.4066 40.919C66.5875 40.2046 66.7828 39.4854 66.9923 38.7615C67.1257 38.3139 67.2495 37.8567 67.3638 37.3899C67.4876 36.9137 67.5591 36.4041 67.5781 35.8612H67.3352C67.3448 36.1183 67.3352 36.3755 67.3067 36.6327C67.2876 36.8803 67.2543 37.0947 67.2067 37.2756C67.0733 37.79 66.9114 38.3234 66.7209 38.8758C66.5304 39.4283 66.3304 39.9522 66.1208 40.4475C66.1113 40.4665 66.0875 40.5141 66.0494 40.5903C66.0208 40.657 65.9922 40.6856 65.9636 40.6761C65.9446 40.6665 65.9303 40.6237 65.9208 40.5475C65.9208 40.4713 65.9255 40.4189 65.9351 40.3903C65.9446 40.276 65.9636 40.1331 65.9922 39.9617C66.0303 39.7902 66.0637 39.614 66.0922 39.4331C66.1303 39.2521 66.1684 39.0759 66.2065 38.9044C66.2542 38.733 66.297 38.5853 66.3351 38.4615C66.3446 38.4139 66.3685 38.3043 66.4066 38.1329C66.4542 37.9614 66.5018 37.7567 66.5494 37.5185C66.5971 37.2709 66.6447 37.0089 66.6923 36.7327C66.7495 36.447 66.7971 36.1707 66.8352 35.904C66.759 35.904 66.7018 35.9088 66.6637 35.9183C66.6161 36.2707 66.5447 36.6279 66.4494 36.9899C66.3637 37.3518 66.2637 37.7186 66.1494 38.09C66.0351 38.4615 65.9208 38.833 65.8065 39.2045C65.6922 39.5664 65.5922 39.9331 65.5064 40.3046C65.4302 40.6189 65.3731 40.9475 65.335 41.2904C65.2969 41.6333 65.2778 41.9762 65.2778 42.3191C65.2778 42.6525 65.3064 42.9811 65.3636 43.305C65.4207 43.6288 65.5112 43.9384 65.635 44.2337L65.7636 44.1051C65.735 44.0384 65.7065 43.9574 65.6779 43.8622C65.6493 43.7669 65.6255 43.6526 65.6065 43.5193C65.5874 43.4145 65.5731 43.2812 65.5636 43.1192C65.5636 42.9573 65.5684 42.8002 65.5779 42.6478C65.5874 42.4954 65.6017 42.3668 65.6207 42.262C65.6398 42.1572 65.6684 42.1048 65.7065 42.1048C65.716 42.1048 65.7255 42.1286 65.735 42.1763C65.7541 42.2239 65.7684 42.281 65.7779 42.3477C65.7874 42.4144 65.797 42.4763 65.8065 42.5335C65.816 42.5906 65.8208 42.6335 65.8208 42.662C65.8303 42.7478 65.8398 42.843 65.8493 42.9478C65.8589 43.0526 65.8684 43.1621 65.8779 43.2764C65.897 43.3907 65.9113 43.505 65.9208 43.6193C65.9398 43.7241 65.9636 43.8146 65.9922 43.8908C66.2113 43.6907 66.4447 43.5145 66.6923 43.3621C66.94 43.2002 67.1828 43.0526 67.421 42.9192C67.6686 42.7859 67.9067 42.6573 68.1353 42.5335C68.3639 42.4096 68.564 42.2858 68.7354 42.162C69.0307 41.962 69.2212 41.7095 69.3069 41.4047C69.3927 41.0904 69.3403 40.8094 69.1498 40.5618C69.0259 40.3998 68.8545 40.2855 68.6354 40.2189C68.4259 40.1522 68.2068 40.1284 67.9782 40.1474C67.7591 40.157 67.5591 40.2046 67.3781 40.2903C67.1971 40.376 67.0781 40.4856 67.0209 40.6189ZM69.2926 38.4329C69.3117 38.4425 69.2879 38.4948 69.2212 38.5901C69.1641 38.6758 69.126 38.7377 69.1069 38.7758C69.4308 38.7282 69.7165 38.6139 69.9642 38.4329C70.2213 38.252 70.4261 38.0376 70.5785 37.79C70.7309 37.5328 70.8262 37.2566 70.8643 36.9613C70.9024 36.6565 70.8738 36.3517 70.7785 36.0469C70.6833 35.7421 70.5261 35.4849 70.3071 35.2754C70.088 35.0658 69.8356 34.8944 69.5498 34.761C69.2641 34.6277 68.9545 34.5324 68.6211 34.4753C68.2877 34.4181 67.9544 34.3943 67.621 34.4038C67.2876 34.4038 66.9685 34.4324 66.6637 34.4896C66.3589 34.5467 66.0922 34.6277 65.8636 34.7325C65.816 34.7515 65.7874 34.761 65.7779 34.761C65.7779 34.761 65.7731 34.7563 65.7636 34.7467C65.7541 34.7182 65.7779 34.6848 65.8351 34.6467C66.0732 34.4372 66.3732 34.28 66.7352 34.1752C67.1066 34.0705 67.4924 34.0181 67.8925 34.0181C68.302 34.0181 68.7116 34.0752 69.1212 34.1895C69.5308 34.2943 69.8975 34.461 70.2213 34.6896C70.5547 34.9087 70.8262 35.1944 71.0357 35.5468C71.2548 35.8897 71.3739 36.2946 71.3929 36.7613C71.4024 37.047 71.3643 37.309 71.2786 37.5471C71.1929 37.7757 71.0786 37.9805 70.9357 38.1615C70.7928 38.3424 70.6261 38.4996 70.4356 38.633C70.2547 38.7568 70.0642 38.8616 69.8641 38.9473C70.1785 39.0902 70.4499 39.314 70.6785 39.6188C70.9071 39.9141 71.0691 40.2093 71.1643 40.5046C71.2786 40.8951 71.3024 41.2666 71.2357 41.6191C71.1786 41.9715 71.0738 42.2906 70.9214 42.5763C70.7785 42.8621 70.6119 43.1097 70.4214 43.3193C70.2404 43.5193 70.0832 43.6622 69.9499 43.7479C69.6736 43.9289 69.3927 44.0717 69.1069 44.1765C68.8212 44.2718 68.5402 44.348 68.2639 44.4051C67.9877 44.4527 67.721 44.4861 67.4638 44.5051C67.2162 44.5242 66.9923 44.5385 66.7923 44.548C66.6399 44.5671 66.5637 44.5623 66.5637 44.5337C66.5542 44.5147 66.578 44.4956 66.6352 44.4766C66.7018 44.467 66.759 44.4575 66.8066 44.448C67.1781 44.3813 67.5448 44.2908 67.9067 44.1765C68.2687 44.0622 68.6354 43.9098 69.0069 43.7193C69.1879 43.6241 69.3736 43.5145 69.5641 43.3907C69.7641 43.2574 69.9451 43.105 70.107 42.9335C70.2785 42.7525 70.4214 42.5525 70.5357 42.3334C70.6595 42.1144 70.7404 41.8715 70.7785 41.6048C70.8262 41.2714 70.8166 40.9428 70.75 40.6189C70.6928 40.2855 70.5357 39.9665 70.2785 39.6617C70.0308 39.3664 69.7689 39.1664 69.4927 39.0616C69.226 38.9568 68.9355 38.9139 68.6211 38.933C68.5449 38.933 68.5068 38.9282 68.5068 38.9187C68.5068 38.8997 68.5592 38.8663 68.664 38.8187C68.7688 38.7711 68.8354 38.7377 68.864 38.7187C68.9497 38.6615 69.0402 38.5949 69.1355 38.5187C69.2307 38.4425 69.2831 38.4139 69.2926 38.4329ZM69.4641 36.8041C69.4641 36.4993 69.3022 36.2803 68.9783 36.1469C68.6545 36.004 68.2068 35.9088 67.6353 35.8612C67.702 36.1564 67.7448 36.4279 67.7639 36.6756C67.7829 36.9232 67.7782 37.1709 67.7496 37.4185C67.7305 37.6566 67.6877 37.9091 67.621 38.1758C67.5638 38.4329 67.4972 38.7187 67.421 39.033C67.621 38.9378 67.8401 38.7949 68.0782 38.6044C68.3163 38.4044 68.5354 38.1996 68.7354 37.99C68.945 37.7709 69.1164 37.5566 69.2498 37.3471C69.3927 37.128 69.4641 36.947 69.4641 36.8041ZM67.4924 34.6182C67.8163 34.5991 68.183 34.6372 68.5925 34.7325C69.0117 34.8182 69.3879 34.9611 69.7213 35.1611C69.8927 35.2659 70.0356 35.3944 70.1499 35.5468C70.2642 35.6992 70.3499 35.8612 70.4071 36.0326C70.4737 36.1945 70.5118 36.3612 70.5214 36.5327C70.5309 36.7041 70.5118 36.8613 70.4642 37.0042C70.4547 37.0232 70.4452 37.0518 70.4356 37.0899C70.4261 37.1185 70.4118 37.1518 70.3928 37.1899C70.3737 37.2185 70.3547 37.2471 70.3356 37.2756C70.3166 37.2947 70.2975 37.2994 70.2785 37.2899C70.2499 37.2899 70.2356 37.2566 70.2356 37.1899C70.2451 37.1232 70.2594 37.0518 70.2785 36.9756C70.3261 36.7089 70.3023 36.4755 70.207 36.2755C70.1213 36.0755 69.988 35.9088 69.807 35.7754C69.626 35.6326 69.4165 35.5183 69.1783 35.4325C68.9402 35.3468 68.6926 35.2801 68.4354 35.2325C68.1877 35.1849 67.9448 35.1611 67.7067 35.1611C67.4686 35.1516 67.2638 35.1563 67.0924 35.1754C66.8542 35.2039 66.6161 35.2516 66.378 35.3182C66.1494 35.3754 65.9351 35.4421 65.735 35.5183C65.535 35.5945 65.3636 35.6754 65.2207 35.7612C65.0778 35.8469 64.9778 35.9278 64.9206 36.004C64.8635 36.0802 64.8302 36.1041 64.8206 36.0755C64.8206 36.0469 64.8302 36.004 64.8492 35.9469C64.9159 35.7564 65.0397 35.5849 65.2207 35.4325C65.4017 35.2706 65.6112 35.1325 65.8493 35.0182C66.0875 34.9039 66.3494 34.8134 66.6352 34.7467C66.9209 34.6801 67.2067 34.6372 67.4924 34.6182ZM66.7923 44.248C66.478 44.3718 66.2256 44.4813 66.0351 44.5766C65.8541 44.6718 65.6731 44.7957 65.4922 44.9481C65.4731 44.9576 65.4541 44.9766 65.435 45.0052C65.416 45.0338 65.3969 45.0433 65.3779 45.0338C65.3588 45.0243 65.3588 44.9957 65.3779 44.9481C65.3969 44.91 65.416 44.8814 65.435 44.8623C65.5303 44.729 65.6541 44.6004 65.8065 44.4766C65.9589 44.3432 66.1732 44.2194 66.4494 44.1051C66.5447 44.067 66.6494 44.0289 66.7637 43.9908C66.8876 43.9432 67.0019 43.9051 67.1066 43.8765C67.2209 43.8479 67.3114 43.8289 67.3781 43.8193C67.4543 43.8098 67.5019 43.8193 67.521 43.8479C67.5305 43.867 67.5019 43.8955 67.4353 43.9336C67.3686 43.9717 67.2924 44.0146 67.2067 44.0622C67.1209 44.1003 67.0352 44.1384 66.9495 44.1765C66.8733 44.2146 66.8209 44.2384 66.7923 44.248ZM74.6199 42.2906C74.9818 41.9477 75.3057 41.6048 75.5914 41.2619C75.8867 40.919 76.1582 40.538 76.4058 40.1189C76.663 39.6902 76.8964 39.2045 77.1059 38.6615C77.325 38.1091 77.5393 37.4614 77.7489 36.7184C77.8632 36.2898 77.9584 35.8755 78.0346 35.4754C78.1203 35.0754 78.1537 34.6848 78.1346 34.3038C78.1346 34.2276 78.1394 34.1895 78.1489 34.1895C78.168 34.1895 78.1822 34.2038 78.1918 34.2324C78.2013 34.261 78.2108 34.2848 78.2203 34.3038C78.3632 34.7515 78.4108 35.223 78.3632 35.7183C78.3156 36.2041 78.2251 36.7041 78.0918 37.2185C77.9584 37.7233 77.8012 38.2377 77.6203 38.7615C77.4488 39.2854 77.3012 39.8093 77.1774 40.3332C77.1012 40.657 77.044 40.9999 77.0059 41.3619C76.9678 41.7238 76.9535 42.0858 76.963 42.4477C76.9821 42.8002 77.0297 43.1478 77.1059 43.4907C77.1821 43.8336 77.3012 44.1527 77.4631 44.448C77.4726 44.4575 77.4774 44.4718 77.4774 44.4909V44.5194C77.4488 44.5194 77.4298 44.5147 77.4202 44.5051L77.3917 44.4766C77.0202 44.0765 76.7678 43.586 76.6344 43.0049C76.5011 43.1669 76.363 43.324 76.2201 43.4764C76.0867 43.6288 75.8962 43.786 75.6486 43.9479C75.2485 44.2146 74.8009 44.3956 74.3056 44.4909C73.8198 44.5956 73.334 44.5337 72.8482 44.3051C72.5625 44.1622 72.3434 43.9765 72.191 43.7479C72.0386 43.5098 71.9243 43.2574 71.8481 42.9907C71.7814 42.7144 71.7386 42.4382 71.7195 42.162C71.71 41.8762 71.7005 41.6191 71.6909 41.3905C71.6719 40.9428 71.6909 40.5094 71.7481 40.0903C71.8148 39.6712 71.9005 39.2807 72.0053 38.9187C72.11 38.5472 72.2291 38.2139 72.3625 37.9186C72.4958 37.6233 72.6244 37.3757 72.7482 37.1756C72.7577 37.1566 72.772 37.1375 72.7911 37.1185C72.8197 37.0899 72.8387 37.0756 72.8482 37.0756C72.8673 37.0851 72.8673 37.1137 72.8482 37.1613C72.8387 37.1994 72.8292 37.228 72.8197 37.2471C72.6768 37.6757 72.5482 38.1138 72.4339 38.5615C72.3196 39.0092 72.2339 39.4616 72.1767 39.9188C72.1196 40.376 72.0958 40.838 72.1053 41.3047C72.1243 41.7619 72.191 42.2239 72.3053 42.6906C72.3529 42.8811 72.4244 43.0811 72.5196 43.2907C72.6149 43.4907 72.772 43.6717 72.9911 43.8336C73.1149 43.9289 73.2435 43.9955 73.3769 44.0336C73.5102 44.0717 73.6388 44.0956 73.7626 44.1051C73.8865 44.1051 74.0008 44.0956 74.1055 44.0765C74.2198 44.0575 74.3246 44.0336 74.4199 44.0051C74.8485 43.9003 75.2152 43.7098 75.52 43.4336C75.8343 43.1573 76.101 42.8764 76.3201 42.5906C76.4058 42.4954 76.4773 42.3858 76.5344 42.262C76.5249 42.081 76.5297 41.8715 76.5487 41.6333C76.5678 41.3952 76.5916 41.1714 76.6201 40.9618C76.6487 40.7523 76.6725 40.5761 76.6916 40.4332C76.7106 40.2903 76.7154 40.2236 76.7059 40.2332C76.4868 40.7189 76.2249 41.1476 75.9201 41.519C75.6248 41.881 75.3676 42.1763 75.1485 42.4049C75.0057 42.5573 74.8437 42.6906 74.6627 42.8049C74.4913 42.9192 74.3198 43.0002 74.1484 43.0478C73.9769 43.0954 73.8198 43.0954 73.6769 43.0478C73.534 43.0002 73.4293 42.8906 73.3626 42.7192C73.2292 42.3287 73.134 41.9 73.0768 41.4333C73.0197 40.9571 73.0149 40.476 73.0625 39.9903C73.1673 39.0187 73.3959 38.0615 73.7483 37.1185C74.1103 36.1755 74.6151 35.3135 75.2628 34.5324C75.3009 34.4848 75.3343 34.4515 75.3628 34.4324C75.4009 34.4134 75.3914 34.4515 75.3343 34.5467C75.1247 34.8706 74.9199 35.242 74.7199 35.6611C74.5294 36.0802 74.3532 36.5232 74.1913 36.9899C74.0389 37.4471 73.9007 37.9186 73.7769 38.4044C73.6626 38.8901 73.5817 39.3616 73.534 39.8188C73.4864 40.276 73.4674 40.7285 73.4769 41.1761C73.4864 41.6143 73.5578 42.0048 73.6912 42.3477C73.7388 42.4715 73.8007 42.5525 73.8769 42.5906C73.9627 42.6192 74.0484 42.6239 74.1341 42.6049C74.2198 42.5763 74.3056 42.5335 74.3913 42.4763C74.477 42.4096 74.5532 42.3477 74.6199 42.2906ZM74.8485 43.4336C74.7437 43.4907 74.6342 43.5479 74.5199 43.605C74.4056 43.6622 74.2865 43.7098 74.1627 43.7479C74.0484 43.7765 73.9246 43.7908 73.7912 43.7908C73.6579 43.7908 73.5197 43.7669 73.3769 43.7193C73.1006 43.6241 72.9006 43.4669 72.7768 43.2478C72.6625 43.0192 72.572 42.8002 72.5053 42.5906C72.3529 42.1334 72.2815 41.681 72.291 41.2333C72.3101 40.7761 72.3482 40.2903 72.4053 39.776C72.4434 39.414 72.5196 39.0187 72.6339 38.5901C72.7577 38.1519 72.9101 37.7186 73.0911 37.2899C73.2721 36.8613 73.4721 36.4612 73.6912 36.0898C73.9198 35.7183 74.1579 35.4135 74.4056 35.1754C74.4246 35.1563 74.458 35.123 74.5056 35.0754C74.5627 35.0182 74.6008 34.9992 74.6199 35.0182C74.6294 35.0277 74.5865 35.1087 74.4913 35.2611C74.396 35.4135 74.2817 35.6183 74.1484 35.8755C74.015 36.1326 73.8817 36.4279 73.7483 36.7613C73.615 37.0851 73.4816 37.4376 73.3483 37.8186C73.2245 38.19 73.1197 38.5758 73.034 38.9759C72.9482 39.3664 72.8911 39.7474 72.8625 40.1189C72.8339 40.4903 72.8197 40.8332 72.8197 41.1476C72.8292 41.4524 72.8435 41.7143 72.8625 41.9334C72.8911 42.1429 72.9149 42.2858 72.934 42.362C72.9816 42.5525 73.0483 42.7525 73.134 42.9621C73.2292 43.1621 73.3578 43.3002 73.5197 43.3764C73.6817 43.4526 73.8817 43.4764 74.1198 43.4479C74.3675 43.4193 74.5865 43.3526 74.777 43.2478C74.7866 43.2383 74.8151 43.2193 74.8628 43.1907C74.9104 43.1621 74.958 43.1335 75.0057 43.105C75.0628 43.0669 75.1104 43.0383 75.1485 43.0192C75.1962 42.9907 75.2247 42.9811 75.2343 42.9907C75.2438 43.0097 75.239 43.0383 75.22 43.0764C75.2009 43.1145 75.1676 43.1573 75.12 43.205C75.0819 43.2526 75.0342 43.3002 74.9771 43.3478C74.9295 43.3859 74.8866 43.4145 74.8485 43.4336ZM78.7204 40.4618C78.6061 40.919 78.468 41.3857 78.3061 41.8619C78.1537 42.3382 78.0203 42.7525 77.906 43.105C77.887 43.1526 77.8679 43.2002 77.8489 43.2478C77.8298 43.2955 77.8108 43.3145 77.7917 43.305C77.7631 43.2955 77.7489 43.2669 77.7489 43.2193C77.7489 43.1621 77.7489 43.1097 77.7489 43.0621C77.787 42.3477 77.8917 41.6381 78.0632 40.9333C78.2442 40.2284 78.4442 39.5188 78.6633 38.8044C78.7966 38.3567 78.9204 37.9043 79.0347 37.4471C79.1586 36.9804 79.23 36.4803 79.2491 35.9469C79.2491 35.8802 79.2586 35.8469 79.2776 35.8469C79.3062 35.8469 79.33 35.8802 79.3491 35.9469C79.4538 36.2041 79.4919 36.5374 79.4634 36.947C79.4348 37.3471 79.3729 37.7662 79.2776 38.2043C79.1919 38.6425 79.0919 39.0663 78.9776 39.4759C78.8633 39.8855 78.7776 40.2141 78.7204 40.4618ZM78.8776 37.3328C78.7442 37.8471 78.6014 38.3758 78.4489 38.9187C78.2965 39.4616 78.0822 39.976 77.806 40.4618C77.787 40.4903 77.7536 40.5427 77.706 40.6189C77.6679 40.6856 77.6346 40.7142 77.606 40.7046C77.5869 40.7046 77.5774 40.6665 77.5774 40.5903C77.5774 40.5141 77.5822 40.4522 77.5917 40.4046C77.6012 40.2903 77.6203 40.1522 77.6488 39.9903C77.6774 39.8188 77.7108 39.6474 77.7489 39.4759C77.7965 39.2949 77.8393 39.1235 77.8774 38.9616C77.9251 38.7901 77.9679 38.6472 78.006 38.5329C78.0251 38.4758 78.0537 38.3663 78.0918 38.2043C78.1394 38.0329 78.187 37.8329 78.2346 37.6043C78.2823 37.3757 78.3299 37.128 78.3775 36.8613C78.4251 36.5851 78.4632 36.3136 78.4918 36.0469C78.5299 35.7802 78.5537 35.5278 78.5633 35.2897C78.5728 35.0515 78.5633 34.8468 78.5347 34.6753C78.5156 34.5896 78.5204 34.5467 78.549 34.5467C78.568 34.5467 78.5871 34.5562 78.6061 34.5753C78.6252 34.5943 78.6395 34.6134 78.649 34.6324C78.7633 34.7944 78.8442 34.9896 78.8919 35.2182C78.949 35.4468 78.9824 35.685 78.9919 35.9326C79.0109 36.1803 79.0062 36.4279 78.9776 36.6756C78.9585 36.9232 78.9252 37.1423 78.8776 37.3328ZM77.5917 43.505C77.6203 43.6955 77.6488 43.867 77.6774 44.0194C77.7155 44.1718 77.7774 44.3194 77.8632 44.4623C77.8727 44.4718 77.8774 44.4861 77.8774 44.5051C77.887 44.5337 77.8822 44.548 77.8632 44.548C77.8155 44.548 77.7679 44.5242 77.7203 44.4766C77.6155 44.3527 77.5298 44.2337 77.4631 44.1194C77.3964 44.0051 77.3345 43.805 77.2774 43.5193C77.2583 43.405 77.244 43.2669 77.2345 43.105C77.225 42.943 77.225 42.7859 77.2345 42.6335C77.244 42.4811 77.2583 42.3572 77.2774 42.262C77.3059 42.1572 77.3393 42.1048 77.3774 42.1048C77.3869 42.1048 77.3964 42.1334 77.406 42.1906C77.425 42.2382 77.4393 42.2953 77.4488 42.362C77.4679 42.4192 77.4774 42.4811 77.4774 42.5477C77.4869 42.6049 77.4917 42.643 77.4917 42.662C77.5203 42.9573 77.5536 43.2383 77.5917 43.505Z" fill="#AD343E"/>
</svg>
