<svg width="122" height="118" viewBox="0 0 122 118" fill="none" xmlns="http://www.w3.org/2000/svg">
<path d="M4 103C3.66667 102.867 3.03333 102.767 2.1 102.7C1.1 102.633 0.533333 102.5 0.399999 102.3L0.6 101.8L1.2 102C1.73333 102.067 2.2 102.133 2.6 102.2C3 102.333 3.43333 102.4 3.9 102.4C5.23333 102.4 6.53333 102 7.8 101.2C9 100.467 10.1667 99.7667 11.3 99.1C11.6333 98.9 11.9667 98.7 12.3 98.5C12.6333 98.3667 12.9333 98.2333 13.2 98.1L14.8 96.5H15.1C15.2333 96.2333 15.6667 95.9 16.4 95.5C17.1333 95.1 17.4333 94.8333 17.3 94.7C17.3667 94.7 17.4333 94.6667 17.5 94.6C17.6333 94.5333 17.7333 94.5333 17.8 94.6C18.4 93.8 18.8667 93.2333 19.2 92.9C19.5333 92.6333 20.0667 92.1333 20.8 91.4C21.2 91 21.8333 90.3333 22.7 89.4C23.6333 88.4667 24.3667 87.8333 24.9 87.5C25.0333 86.8333 25.5 86.2667 26.3 85.8C27.1 85.3333 27.8 84.7333 28.4 84C28.2 83.8 28.3 83.4333 28.7 82.9C29.1667 82.3667 29.6333 81.8667 30.1 81.4C30.6333 80.9333 30.9 80.7 30.9 80.7L31.3 79.8C31.4333 79.6 31.7667 79.1667 32.3 78.5C32.9 77.7667 33.5 77.0667 34.1 76.4C34.7 75.7333 35.0333 75.4 35.1 75.4C35.1667 75.1333 35.3667 74.8 35.7 74.4C36.1 73.9333 36.2667 73.6 36.2 73.4C36.7333 73 37.3667 72.3333 38.1 71.4C38.8333 70.4667 39.4 69.7667 39.8 69.3C40.6 68.3 41.2333 67.3333 41.7 66.4C42.1667 65.4667 42.8 64.5333 43.6 63.6C45.9333 60.7333 48.2667 57.8 50.6 54.8C53 51.8 55.5333 49.0333 58.2 46.5C59.2 45.5667 60 44.6333 60.6 43.7C61.2667 42.7667 62.1333 41.9 63.2 41.1C63.4 40.9667 63.8 40.5667 64.4 39.9C65 39.2333 65.6 38.6 66.2 38C66.8 37.4 67.1667 37.1 67.3 37.1C67.4333 36.7667 67.7667 36.4333 68.3 36.1C68.8333 35.7667 69.2333 35.4667 69.5 35.2C70.0333 34.7333 70.5333 34.2333 71 33.7C71.5333 33.1667 72.0667 32.6667 72.6 32.2C73.1333 31.8 73.9333 31.2667 75 30.6C76.0667 29.9333 76.8333 29.4 77.3 29L77.6 28.8C76.9333 28.1333 76.0333 27.5667 74.9 27.1C73.7667 26.6333 72.0667 26.2667 69.8 26C69.0667 25.8667 68.2667 25.8 67.4 25.8C66.5333 25.8 65.7 25.8 64.9 25.8C64.5667 25.8 64.2 25.7667 63.8 25.7C63.4667 25.5667 63.1333 25.4667 62.8 25.4C62.6 25.6 62.2667 25.7 61.8 25.7C61.6 25.7 61.3667 25.7 61.1 25.7C60.9 25.6333 60.6667 25.5667 60.4 25.5L60.2 25.9H59.9C59.7 25.9 59.2667 25.9333 58.6 26C57.9333 26 57.2667 26.0333 56.6 26.1C56 26.1667 55.6667 26.3 55.6 26.5C55.2667 26.5 54.9333 26.5333 54.6 26.6C54.2667 26.6 53.9333 26.5667 53.6 26.5C53.2 26.9 52.3333 27.2 51 27.4C49.6667 27.6 48.4 27.8 47.2 28C46 28.1333 45.3333 28.3667 45.2 28.7C41.5333 29.3 37.8 30.5 34 32.3C30.2667 34.0333 26.7667 36.2333 23.5 38.9C20.2333 41.5667 17.4333 44.6 15.1 48C12.8333 51.4 11.3667 55.0333 10.7 58.9C10.6333 59.1 10.6 59.3333 10.6 59.6C10.6 59.8 10.6 60 10.6 60.2C10.6 60.8667 10.6333 61.5333 10.7 62.2C10.8333 62.8667 10.8667 63.3667 10.8 63.7C10.6667 63.8333 10.5667 63.9 10.5 63.9C10.2333 63.7667 10.0667 63.5 10 63.1C9.93333 62.7 9.73333 62.5 9.4 62.5L9 62.7C8.4 62.3 8.1 61.5 8.1 60.3C8.1 59.9667 8.1 59.6667 8.1 59.4C8.16667 59.1333 8.23333 58.8667 8.3 58.6C8.76667 56.1333 9.66667 53.6667 11 51.2C12.3333 48.6667 13.9333 46.2667 15.8 44C17.7333 41.6667 19.6667 39.6667 21.6 38C22.4667 37.2667 23.4 36.6 24.4 36C25.4 35.3333 26.3333 34.6667 27.2 34C27.3333 33.9333 27.7 33.7333 28.3 33.4C28.9 33 29.5 32.6333 30.1 32.3C30.7667 31.9 31.1333 31.6667 31.2 31.6C31.8 31.4 32.6 31 33.6 30.4C34.6 29.7333 35.6667 29.0333 36.8 28.3C38 27.5667 39.1 26.9667 40.1 26.5C41.1667 25.9667 42.0333 25.7667 42.7 25.9L42.9 25.8C43.2333 25.4 44.1 24.9667 45.5 24.5C46.9 24.0333 48.4667 23.6 50.2 23.2C52 22.8 53.6333 22.5 55.1 22.3C56.6333 22.0333 57.7 21.9333 58.3 22L63.2 21.6C63.3333 21.5333 63.5667 21.5 63.9 21.5C64.3667 21.5 64.8667 21.5667 65.4 21.7C66 21.7667 66.4333 21.8333 66.7 21.9C66.9667 21.8333 67.2 21.8 67.4 21.8C67.6667 21.7333 67.9 21.7 68.1 21.7C68.4333 21.7 68.7333 21.7333 69 21.8C69.3333 21.8 69.6333 21.8333 69.9 21.9C70.0333 21.8333 70.2333 21.8 70.5 21.8C70.9 21.8 71.3 21.8667 71.7 22C72.1667 22.0667 72.5333 22.1333 72.8 22.2C73 22 73.2333 21.9 73.5 21.9C73.8333 21.9 74.1333 22 74.4 22.2C74.6667 22.3333 75.1333 22.4 75.8 22.4C76.2 22.4 76.5667 22.4667 76.9 22.6C77.2333 22.7333 77.6 22.8333 78 22.9L83.2 24.6L85 26L85.9 25.5C86.2333 25.3 86.7333 24.9667 87.4 24.5C88.0667 24.0333 88.5667 23.8 88.9 23.8L91 22.6C91.3333 22.4667 91.6667 22.3667 92 22.3C92.4 22.1667 92.7667 22.0333 93.1 21.9C93.6333 21.7 94.1667 21.5 94.7 21.3C95.2333 21.1 95.7667 20.9333 96.3 20.8C96.7667 20.6667 97.2 20.5 97.6 20.3C98.0667 20.1 98.5333 20.0333 99 20.1C100.067 19.4333 100.8 19.1 101.2 19.1C101.533 19.1 101.867 19.1667 102.2 19.3C102.6 19.3667 103.133 19.4667 103.8 19.6H104.1C104.167 19.5333 104.467 19.5 105 19.5C105.733 19.5 106.567 19.5667 107.5 19.7C108.433 19.7667 109.033 19.8667 109.3 20L110.3 20.3V20.2C110.567 20.2 110.8 20.2667 111 20.4C111.2 20.4667 111.4 20.5333 111.6 20.6C112.933 21 114.167 21.4667 115.3 22L116.8 22.9C117.067 23.1667 117.533 23.6333 118.2 24.3C118.933 24.9 119.333 25.3667 119.4 25.7L119 26.1L118.6 25.4C118.2 25.0667 117.833 24.7 117.5 24.3C117.167 23.9 116.767 23.5667 116.3 23.3C115.3 22.6333 114.167 22.3 112.9 22.3C111.633 22.3 110.433 22.2667 109.3 22.2L107.3 21.9L105.4 22.4L105 22.2C104.8 22.3333 104.3 22.4 103.5 22.4C102.767 22.3333 102.433 22.4 102.5 22.6C102.433 22.5333 102.333 22.5 102.2 22.5C102.133 22.4333 102.1 22.3667 102.1 22.3C101.033 22.7667 100.267 23.1 99.8 23.3C99.4 23.4333 99.1 23.5333 98.9 23.6C98.7 23.6667 98.3667 23.7667 97.9 23.9C97.5 24.0333 96.7667 24.3667 95.7 24.9C94.4333 25.4333 93.1667 26 91.9 26.6C90.7 27.2 89.4667 27.8 88.2 28.4C89.2 29.2 90.1 30.1 90.9 31.1C91.5 31.7 92 32.4 92.4 33.2C92.4667 33.2667 92.5 33.4 92.5 33.6C92.5 34.0667 92.6333 34.4 92.9 34.6C93.1667 34.8 93.3333 35.0667 93.4 35.4C93.5333 35.6667 93.5667 35.9667 93.5 36.3C93.5 36.5667 93.5333 36.8667 93.6 37.2C93.6 37.2667 93.7 37.3667 93.9 37.5C94.1 37.5667 94.2 37.6667 94.2 37.8C94.2667 38 94.3 38.2333 94.3 38.5C94.3 38.7 94.3 38.9 94.3 39.1C94.3 40.8333 93.9 42.7667 93.1 44.9C92.3 46.9667 91.2 48.8 89.8 50.4C89.5333 50.7333 89.3 50.8667 89.1 50.8C88.9667 50.6667 88.7333 50.7667 88.4 51.1C88.2 51.2333 87.9667 51.3667 87.7 51.5C87.4333 51.6333 87.2333 51.8333 87.1 52.1L85.5 54.8L82.1 56.4C81.5667 56.6667 81.1 57 80.7 57.4C80.3 57.8 79.8667 58.1667 79.4 58.5C81.2 58.7667 82.8333 59.2333 84.3 59.9C85.8333 60.5667 87 61.3667 87.8 62.3C88.3333 62.9667 88.7 63.6667 88.9 64.4C89.1667 65.1333 89.3 65.9 89.3 66.7C89.3 67.8333 89.0667 69.0333 88.6 70.3C88.1333 71.5 87.5333 72.7 86.8 73.9C86.7333 73.9667 86.6667 74.1 86.6 74.3C86.6 74.4333 86.5333 74.5333 86.4 74.6C86.3333 74.6667 86.2333 74.7 86.1 74.7C85.9667 74.7 85.8667 74.7667 85.8 74.9C85.6667 75.1 85.5667 75.3 85.5 75.5C85.4333 75.7 85.3333 75.9 85.2 76.1C84.6 76.9 83.9667 77.6667 83.3 78.4C82.7 79.0667 82.1 79.6667 81.5 80.2C81.1 80.6 80.8 80.9667 80.6 81.3C80.4667 81.5667 80.1667 81.8667 79.7 82.2C79.1667 82.4667 78.6333 83 78.1 83.8C77.6333 84.6 77.1667 85.1667 76.7 85.5C76.4333 85.6333 76.1667 85.8333 75.9 86.1C75.7 86.3667 75.4667 86.5667 75.2 86.7L68.8 91.5C68.2 91.9667 67.7 92.2667 67.3 92.4C66.9 92.5333 66.4 92.7667 65.8 93.1C64.8 93.7 63.5333 94.2667 62 94.8C60.5333 95.4 58.7333 95.8 56.6 96C55.6 96.3333 54.5333 96.5667 53.4 96.7C52.3333 96.9 51.3333 97 50.4 97C49.4667 97 48.6 96.9 47.8 96.7C47.0667 96.5667 46.5 96.3 46.1 95.9C45.9 95.7 45.8 95.2667 45.8 94.6C45.4 94.3333 45.1 94.1 44.9 93.9C44.2333 93.1667 43.7667 92.5 43.5 91.9C43.3 91.3667 43.2 90.8667 43.2 90.4C43.2 89.8667 43.3 89.2 43.5 88.4C43.6333 87.6 43.9 86.8667 44.3 86.2C44.7667 85.6 45.2333 85.1667 45.7 84.9C46.2333 84.5667 46.7333 84.1667 47.2 83.7C47.6667 83.2333 48.1667 82.8667 48.7 82.6C49.0333 82.0667 49.2667 81.5667 49.4 81.1C49.5333 80.6333 49.8333 80.4333 50.3 80.5V80.3C50.6333 80.0333 51.1667 79.6333 51.9 79.1C52.6333 78.5667 53.1333 78.2667 53.4 78.2C53.5333 78.2 53.6333 78.1667 53.7 78.1C53.7667 78.1 53.8333 78.0333 53.9 77.9C53.9667 77.7667 54.0333 77.6667 54.1 77.6V77.5C54.8333 77.3667 55.9 76.9333 57.3 76.2C58.7 75.4 60.3667 74.5 62.3 73.5C64.2333 72.5 66.3333 71.5667 68.6 70.7C70.9333 69.7667 73.3 69.1333 75.7 68.8C75.8333 68.8 75.9667 68.8 76.1 68.8C76.2333 68.7333 76.3333 68.7 76.4 68.7C77.3333 68.7 77.8 68.9333 77.8 69.4C77.8 70 77.1333 70.2333 75.8 70.1C70.3333 71.7667 65.9 73.6 62.5 75.6C59.1667 77.5333 56.9667 78.9 55.9 79.7C55.3667 80.1 54.4667 80.8667 53.2 82C52 83.0667 50.8333 84.2333 49.7 85.5C48.6333 86.8333 48 88.0333 47.8 89.1C47.7333 89.3667 47.7 89.7 47.7 90.1C47.7 91.1667 48.1 91.9 48.9 92.3C49.7 92.7667 50.7333 93 52 93C52.8667 93 53.8 92.9333 54.8 92.8C55.8 92.6667 56.8 92.5 57.8 92.3C60.1333 91.5 62.4667 90.6333 64.8 89.7C67.2 88.7667 69.5333 87.6667 71.8 86.4L72.5 85.8C72.6333 85.7333 72.9 85.6333 73.3 85.5C73.7 85.4333 74.1333 85.2667 74.6 85C74.8 84.8667 74.9667 84.6667 75.1 84.4C75.3 84.0667 75.5333 83.8 75.8 83.6C76.1333 83.4 76.4 83.2333 76.6 83.1C76.8667 82.9 77.2 82.7333 77.6 82.6C77.7333 82.5333 77.8667 82.4 78 82.2C78.1333 82 78.2667 81.9 78.4 81.9C78.9333 81.3667 79.4333 80.8 79.9 80.2C80.4333 79.6 80.9 79 81.3 78.4C82.2333 77.1333 82.9667 75.8667 83.5 74.6C84.0333 73.2667 84.3 72 84.3 70.8C84.3 69.2 83.8 67.8 82.8 66.6C81.9333 65.4667 80.4667 64.6333 78.4 64.1C76.3333 63.5 74.1333 63.2 71.8 63.2C69.7333 63.2 67.7333 63.4333 65.8 63.9C63.9333 64.3 62.4333 64.9333 61.3 65.8L61 65.5L67 59.7C67.8 59.1667 68.8667 58.7667 70.2 58.5C71.5333 58.2333 72.9333 58.1 74.4 58.1C74.8 58.1 75.2 58.1 75.6 58.1C76.0667 58.1 76.5333 58.1333 77 58.2C78 57.6667 79.0667 57.0667 80.2 56.4C81.4 55.7333 82.7 54.9333 84.1 54C87.4333 50.4 89.1 46.7667 89.1 43.1C89.1 42.1667 89 41.2667 88.8 40.4C88.7333 40.2667 88.6333 40.1333 88.5 40C88.4333 39.8667 88.3667 39.7333 88.3 39.6V39.5C88.3 39.3667 88.3333 39.2 88.4 39C88.5333 38.8 88.5667 38.6667 88.5 38.6C88.3667 38.3333 88.1667 37.9333 87.9 37.4C87.7 36.8667 87.5333 36.4667 87.4 36.2C87.3333 36.0667 87.3 35.9 87.3 35.7C87.3 35.4333 87.2333 35.2333 87.1 35.1C86.9667 34.9 86.8 34.7333 86.6 34.6C86.4 34.4667 86.2333 34.3667 86.1 34.3C86.0333 34.1667 85.9 34.1 85.7 34.1C85.5667 34.0333 85.4333 33.9667 85.3 33.9C84.8333 33.3667 84.4667 32.8667 84.2 32.4C84 31.9333 83.5333 31.4667 82.8 31L80.1 32.9C79.4333 33.3667 79.0667 33.9 79 34.5C78.9333 35.0333 78.5333 35.5333 77.8 36L76.2 37.6C76.0667 37.6667 75.8333 37.7 75.5 37.7L74.6 38.7L74.4 39L73.8 38.9L72.3 40.2L71.7 41.3C71.2333 41.7667 70.7333 42.2333 70.2 42.7C69.7333 43.1667 69.2667 43.6667 68.8 44.2C68.5333 44.4667 68.2333 44.7333 67.9 45C67.5667 45.2 67.3333 45.4667 67.2 45.8V46H67.1C67.0333 45.9333 66.9333 45.8667 66.8 45.8C66.7333 45.7333 66.7 45.7333 66.7 45.8C66.0333 47.0667 65.1 48.2 63.9 49.2L63.5 49.9C63.3 50.0333 63.0333 50.1667 62.7 50.3C62.4333 50.4333 62.2333 50.6 62.1 50.8L61.8 51.5L60.3 53.1L59.6 54.2L58.3 55.3C57.9 55.8333 57.5 56.4 57.1 57C56.7 57.5333 56.2667 58.0667 55.8 58.6L54.2 60.4L52.1 63.2L51.1 64.2L50.2 65.6L49.5 66.3L48.9 67.4C48.7 67.6667 48.5 67.9667 48.3 68.3C48.1 68.5667 47.8667 68.8667 47.6 69.2C47.4 69.4667 47.0333 70 46.5 70.8C45.9667 71.5333 45.3667 72.3667 44.7 73.3C44.0333 74.1667 43.4 74.9333 42.8 75.6C42.2667 76.2667 41.9333 76.6 41.8 76.6C41.7333 76.6667 41.3333 77.1 40.6 77.9C39.9333 78.7 39.1667 79.6333 38.3 80.7C37.4333 81.7 36.6333 82.6 35.9 83.4C35.2333 84.2 34.9 84.6333 34.9 84.7L32 87.9C31.6667 88.2333 31.1667 88.5667 30.5 88.9C29.9 89.3 29.3333 89.6667 28.8 90C28.6667 90.2667 28.1667 90.8333 27.3 91.7C26.4333 92.5667 25.8333 93.1 25.5 93.3L21.4 95.4C21.1333 95.6 20.8333 95.8 20.5 96C20.2333 96.2 20 96.4 19.8 96.6L17.5 97.8L17.1 98C17.0333 98.2 16.6333 98.5 15.9 98.9C15.2333 99.3667 14.5333 99.7667 13.8 100.1C13.0667 100.433 12.5333 100.667 12.2 100.8L11.2 101.2C11 101.333 10.7667 101.4 10.5 101.4C10.3 101.467 10.1 101.567 9.9 101.7C9.23333 101.967 8.56667 102.167 7.9 102.3C7.23333 102.5 6.53333 102.667 5.8 102.8L4 103Z" fill="#AD343E"/>
<path d="M6 104C5.66667 103.867 5.03333 103.767 4.1 103.7C3.1 103.633 2.53333 103.5 2.4 103.3L2.6 102.8L3.2 103C3.73333 103.067 4.2 103.133 4.6 103.2C5 103.333 5.43333 103.4 5.9 103.4C7.23333 103.4 8.53333 103 9.8 102.2C11 101.467 12.1667 100.767 13.3 100.1C13.6333 99.9 13.9667 99.7 14.3 99.5C14.6333 99.3667 14.9333 99.2333 15.2 99.1L16.8 97.5H17.1C17.2333 97.2333 17.6667 96.9 18.4 96.5C19.1333 96.1 19.4333 95.8333 19.3 95.7C19.3667 95.7 19.4333 95.6667 19.5 95.6C19.6333 95.5333 19.7333 95.5333 19.8 95.6C20.4 94.8 20.8667 94.2333 21.2 93.9C21.5333 93.6333 22.0667 93.1333 22.8 92.4C23.2 92 23.8333 91.3333 24.7 90.4C25.6333 89.4667 26.3667 88.8333 26.9 88.5C27.0333 87.8333 27.5 87.2667 28.3 86.8C29.1 86.3333 29.8 85.7333 30.4 85C30.2 84.8 30.3 84.4333 30.7 83.9C31.1667 83.3667 31.6333 82.8667 32.1 82.4C32.6333 81.9333 32.9 81.7 32.9 81.7L33.3 80.8C33.4333 80.6 33.7667 80.1667 34.3 79.5C34.9 78.7667 35.5 78.0667 36.1 77.4C36.7 76.7333 37.0333 76.4 37.1 76.4C37.1667 76.1333 37.3667 75.8 37.7 75.4C38.1 74.9333 38.2667 74.6 38.2 74.4C38.7333 74 39.3667 73.3333 40.1 72.4C40.8333 71.4667 41.4 70.7667 41.8 70.3C42.6 69.3 43.2333 68.3333 43.7 67.4C44.1667 66.4667 44.8 65.5333 45.6 64.6C47.9333 61.7333 50.2667 58.8 52.6 55.8C55 52.8 57.5333 50.0333 60.2 47.5C61.2 46.5667 62 45.6333 62.6 44.7C63.2667 43.7667 64.1333 42.9 65.2 42.1C65.4 41.9667 65.8 41.5667 66.4 40.9C67 40.2333 67.6 39.6 68.2 39C68.8 38.4 69.1667 38.1 69.3 38.1C69.4333 37.7667 69.7667 37.4333 70.3 37.1C70.8333 36.7667 71.2333 36.4667 71.5 36.2C72.0333 35.7333 72.5333 35.2333 73 34.7C73.5333 34.1667 74.0667 33.6667 74.6 33.2C75.1333 32.8 75.9333 32.2667 77 31.6C78.0667 30.9333 78.8333 30.4 79.3 30L79.6 29.8C78.9333 29.1333 78.0333 28.5667 76.9 28.1C75.7667 27.6333 74.0667 27.2667 71.8 27C71.0667 26.8667 70.2667 26.8 69.4 26.8C68.5333 26.8 67.7 26.8 66.9 26.8C66.5667 26.8 66.2 26.7667 65.8 26.7C65.4667 26.5667 65.1333 26.4667 64.8 26.4C64.6 26.6 64.2667 26.7 63.8 26.7C63.6 26.7 63.3667 26.7 63.1 26.7C62.9 26.6333 62.6667 26.5667 62.4 26.5L62.2 26.9H61.9C61.7 26.9 61.2667 26.9333 60.6 27C59.9333 27 59.2667 27.0333 58.6 27.1C58 27.1667 57.6667 27.3 57.6 27.5C57.2667 27.5 56.9333 27.5333 56.6 27.6C56.2667 27.6 55.9333 27.5667 55.6 27.5C55.2 27.9 54.3333 28.2 53 28.4C51.6667 28.6 50.4 28.8 49.2 29C48 29.1333 47.3333 29.3667 47.2 29.7C43.5333 30.3 39.8 31.5 36 33.3C32.2667 35.0333 28.7667 37.2333 25.5 39.9C22.2333 42.5667 19.4333 45.6 17.1 49C14.8333 52.4 13.3667 56.0333 12.7 59.9C12.6333 60.1 12.6 60.3333 12.6 60.6C12.6 60.8 12.6 61 12.6 61.2C12.6 61.8667 12.6333 62.5333 12.7 63.2C12.8333 63.8667 12.8667 64.3667 12.8 64.7C12.6667 64.8333 12.5667 64.9 12.5 64.9C12.2333 64.7667 12.0667 64.5 12 64.1C11.9333 63.7 11.7333 63.5 11.4 63.5L11 63.7C10.4 63.3 10.1 62.5 10.1 61.3C10.1 60.9667 10.1 60.6667 10.1 60.4C10.1667 60.1333 10.2333 59.8667 10.3 59.6C10.7667 57.1333 11.6667 54.6667 13 52.2C14.3333 49.6667 15.9333 47.2667 17.8 45C19.7333 42.6667 21.6667 40.6667 23.6 39C24.4667 38.2667 25.4 37.6 26.4 37C27.4 36.3333 28.3333 35.6667 29.2 35C29.3333 34.9333 29.7 34.7333 30.3 34.4C30.9 34 31.5 33.6333 32.1 33.3C32.7667 32.9 33.1333 32.6667 33.2 32.6C33.8 32.4 34.6 32 35.6 31.4C36.6 30.7333 37.6667 30.0333 38.8 29.3C40 28.5667 41.1 27.9667 42.1 27.5C43.1667 26.9667 44.0333 26.7667 44.7 26.9L44.9 26.8C45.2333 26.4 46.1 25.9667 47.5 25.5C48.9 25.0333 50.4667 24.6 52.2 24.2C54 23.8 55.6333 23.5 57.1 23.3C58.6333 23.0333 59.7 22.9333 60.3 23L65.2 22.6C65.3333 22.5333 65.5667 22.5 65.9 22.5C66.3667 22.5 66.8667 22.5667 67.4 22.7C68 22.7667 68.4333 22.8333 68.7 22.9C68.9667 22.8333 69.2 22.8 69.4 22.8C69.6667 22.7333 69.9 22.7 70.1 22.7C70.4333 22.7 70.7333 22.7333 71 22.8C71.3333 22.8 71.6333 22.8333 71.9 22.9C72.0333 22.8333 72.2333 22.8 72.5 22.8C72.9 22.8 73.3 22.8667 73.7 23C74.1667 23.0667 74.5333 23.1333 74.8 23.2C75 23 75.2333 22.9 75.5 22.9C75.8333 22.9 76.1333 23 76.4 23.2C76.6667 23.3333 77.1333 23.4 77.8 23.4C78.2 23.4 78.5667 23.4667 78.9 23.6C79.2333 23.7333 79.6 23.8333 80 23.9L85.2 25.6L87 27L87.9 26.5C88.2333 26.3 88.7333 25.9667 89.4 25.5C90.0667 25.0333 90.5667 24.8 90.9 24.8L93 23.6C93.3333 23.4667 93.6667 23.3667 94 23.3C94.4 23.1667 94.7667 23.0333 95.1 22.9C95.6333 22.7 96.1667 22.5 96.7 22.3C97.2333 22.1 97.7667 21.9333 98.3 21.8C98.7667 21.6667 99.2 21.5 99.6 21.3C100.067 21.1 100.533 21.0333 101 21.1C102.067 20.4333 102.8 20.1 103.2 20.1C103.533 20.1 103.867 20.1667 104.2 20.3C104.6 20.3667 105.133 20.4667 105.8 20.6H106.1C106.167 20.5333 106.467 20.5 107 20.5C107.733 20.5 108.567 20.5667 109.5 20.7C110.433 20.7667 111.033 20.8667 111.3 21L112.3 21.3V21.2C112.567 21.2 112.8 21.2667 113 21.4C113.2 21.4667 113.4 21.5333 113.6 21.6C114.933 22 116.167 22.4667 117.3 23L118.8 23.9C119.067 24.1667 119.533 24.6333 120.2 25.3C120.933 25.9 121.333 26.3667 121.4 26.7L121 27.1L120.6 26.4C120.2 26.0667 119.833 25.7 119.5 25.3C119.167 24.9 118.767 24.5667 118.3 24.3C117.3 23.6333 116.167 23.3 114.9 23.3C113.633 23.3 112.433 23.2667 111.3 23.2L109.3 22.9L107.4 23.4L107 23.2C106.8 23.3333 106.3 23.4 105.5 23.4C104.767 23.3333 104.433 23.4 104.5 23.6C104.433 23.5333 104.333 23.5 104.2 23.5C104.133 23.4333 104.1 23.3667 104.1 23.3C103.033 23.7667 102.267 24.1 101.8 24.3C101.4 24.4333 101.1 24.5333 100.9 24.6C100.7 24.6667 100.367 24.7667 99.9 24.9C99.5 25.0333 98.7667 25.3667 97.7 25.9C96.4333 26.4333 95.1667 27 93.9 27.6C92.7 28.2 91.4667 28.8 90.2 29.4C91.2 30.2 92.1 31.1 92.9 32.1C93.5 32.7 94 33.4 94.4 34.2C94.4667 34.2667 94.5 34.4 94.5 34.6C94.5 35.0667 94.6333 35.4 94.9 35.6C95.1667 35.8 95.3333 36.0667 95.4 36.4C95.5333 36.6667 95.5667 36.9667 95.5 37.3C95.5 37.5667 95.5333 37.8667 95.6 38.2C95.6 38.2667 95.7 38.3667 95.9 38.5C96.1 38.5667 96.2 38.6667 96.2 38.8C96.2667 39 96.3 39.2333 96.3 39.5C96.3 39.7 96.3 39.9 96.3 40.1C96.3 41.8333 95.9 43.7667 95.1 45.9C94.3 47.9667 93.2 49.8 91.8 51.4C91.5333 51.7333 91.3 51.8667 91.1 51.8C90.9667 51.6667 90.7333 51.7667 90.4 52.1C90.2 52.2333 89.9667 52.3667 89.7 52.5C89.4333 52.6333 89.2333 52.8333 89.1 53.1L87.5 55.8L84.1 57.4C83.5667 57.6667 83.1 58 82.7 58.4C82.3 58.8 81.8667 59.1667 81.4 59.5C83.2 59.7667 84.8333 60.2333 86.3 60.9C87.8333 61.5667 89 62.3667 89.8 63.3C90.3333 63.9667 90.7 64.6667 90.9 65.4C91.1667 66.1333 91.3 66.9 91.3 67.7C91.3 68.8333 91.0667 70.0333 90.6 71.3C90.1333 72.5 89.5333 73.7 88.8 74.9C88.7333 74.9667 88.6667 75.1 88.6 75.3C88.6 75.4333 88.5333 75.5333 88.4 75.6C88.3333 75.6667 88.2333 75.7 88.1 75.7C87.9667 75.7 87.8667 75.7667 87.8 75.9C87.6667 76.1 87.5667 76.3 87.5 76.5C87.4333 76.7 87.3333 76.9 87.2 77.1C86.6 77.9 85.9667 78.6667 85.3 79.4C84.7 80.0667 84.1 80.6667 83.5 81.2C83.1 81.6 82.8 81.9667 82.6 82.3C82.4667 82.5667 82.1667 82.8667 81.7 83.2C81.1667 83.4667 80.6333 84 80.1 84.8C79.6333 85.6 79.1667 86.1667 78.7 86.5C78.4333 86.6333 78.1667 86.8333 77.9 87.1C77.7 87.3667 77.4667 87.5667 77.2 87.7L70.8 92.5C70.2 92.9667 69.7 93.2667 69.3 93.4C68.9 93.5333 68.4 93.7667 67.8 94.1C66.8 94.7 65.5333 95.2667 64 95.8C62.5333 96.4 60.7333 96.8 58.6 97C57.6 97.3333 56.5333 97.5667 55.4 97.7C54.3333 97.9 53.3333 98 52.4 98C51.4667 98 50.6 97.9 49.8 97.7C49.0667 97.5667 48.5 97.3 48.1 96.9C47.9 96.7 47.8 96.2667 47.8 95.6C47.4 95.3333 47.1 95.1 46.9 94.9C46.2333 94.1667 45.7667 93.5 45.5 92.9C45.3 92.3667 45.2 91.8667 45.2 91.4C45.2 90.8667 45.3 90.2 45.5 89.4C45.6333 88.6 45.9 87.8667 46.3 87.2C46.7667 86.6 47.2333 86.1667 47.7 85.9C48.2333 85.5667 48.7333 85.1667 49.2 84.7C49.6667 84.2333 50.1667 83.8667 50.7 83.6C51.0333 83.0667 51.2667 82.5667 51.4 82.1C51.5333 81.6333 51.8333 81.4333 52.3 81.5V81.3C52.6333 81.0333 53.1667 80.6333 53.9 80.1C54.6333 79.5667 55.1333 79.2667 55.4 79.2C55.5333 79.2 55.6333 79.1667 55.7 79.1C55.7667 79.1 55.8333 79.0333 55.9 78.9C55.9667 78.7667 56.0333 78.6667 56.1 78.6V78.5C56.8333 78.3667 57.9 77.9333 59.3 77.2C60.7 76.4 62.3667 75.5 64.3 74.5C66.2333 73.5 68.3333 72.5667 70.6 71.7C72.9333 70.7667 75.3 70.1333 77.7 69.8C77.8333 69.8 77.9667 69.8 78.1 69.8C78.2333 69.7333 78.3333 69.7 78.4 69.7C79.3333 69.7 79.8 69.9333 79.8 70.4C79.8 71 79.1333 71.2333 77.8 71.1C72.3333 72.7667 67.9 74.6 64.5 76.6C61.1667 78.5333 58.9667 79.9 57.9 80.7C57.3667 81.1 56.4667 81.8667 55.2 83C54 84.0667 52.8333 85.2333 51.7 86.5C50.6333 87.8333 50 89.0333 49.8 90.1C49.7333 90.3667 49.7 90.7 49.7 91.1C49.7 92.1667 50.1 92.9 50.9 93.3C51.7 93.7667 52.7333 94 54 94C54.8667 94 55.8 93.9333 56.8 93.8C57.8 93.6667 58.8 93.5 59.8 93.3C62.1333 92.5 64.4667 91.6333 66.8 90.7C69.2 89.7667 71.5333 88.6667 73.8 87.4L74.5 86.8C74.6333 86.7333 74.9 86.6333 75.3 86.5C75.7 86.4333 76.1333 86.2667 76.6 86C76.8 85.8667 76.9667 85.6667 77.1 85.4C77.3 85.0667 77.5333 84.8 77.8 84.6C78.1333 84.4 78.4 84.2333 78.6 84.1C78.8667 83.9 79.2 83.7333 79.6 83.6C79.7333 83.5333 79.8667 83.4 80 83.2C80.1333 83 80.2667 82.9 80.4 82.9C80.9333 82.3667 81.4333 81.8 81.9 81.2C82.4333 80.6 82.9 80 83.3 79.4C84.2333 78.1333 84.9667 76.8667 85.5 75.6C86.0333 74.2667 86.3 73 86.3 71.8C86.3 70.2 85.8 68.8 84.8 67.6C83.9333 66.4667 82.4667 65.6333 80.4 65.1C78.3333 64.5 76.1333 64.2 73.8 64.2C71.7333 64.2 69.7333 64.4333 67.8 64.9C65.9333 65.3 64.4333 65.9333 63.3 66.8L63 66.5L69 60.7C69.8 60.1667 70.8667 59.7667 72.2 59.5C73.5333 59.2333 74.9333 59.1 76.4 59.1C76.8 59.1 77.2 59.1 77.6 59.1C78.0667 59.1 78.5333 59.1333 79 59.2C80 58.6667 81.0667 58.0667 82.2 57.4C83.4 56.7333 84.7 55.9333 86.1 55C89.4333 51.4 91.1 47.7667 91.1 44.1C91.1 43.1667 91 42.2667 90.8 41.4C90.7333 41.2667 90.6333 41.1333 90.5 41C90.4333 40.8667 90.3667 40.7333 90.3 40.6V40.5C90.3 40.3667 90.3333 40.2 90.4 40C90.5333 39.8 90.5667 39.6667 90.5 39.6C90.3667 39.3333 90.1667 38.9333 89.9 38.4C89.7 37.8667 89.5333 37.4667 89.4 37.2C89.3333 37.0667 89.3 36.9 89.3 36.7C89.3 36.4333 89.2333 36.2333 89.1 36.1C88.9667 35.9 88.8 35.7333 88.6 35.6C88.4 35.4667 88.2333 35.3667 88.1 35.3C88.0333 35.1667 87.9 35.1 87.7 35.1C87.5667 35.0333 87.4333 34.9667 87.3 34.9C86.8333 34.3667 86.4667 33.8667 86.2 33.4C86 32.9333 85.5333 32.4667 84.8 32L82.1 33.9C81.4333 34.3667 81.0667 34.9 81 35.5C80.9333 36.0333 80.5333 36.5333 79.8 37L78.2 38.6C78.0667 38.6667 77.8333 38.7 77.5 38.7L76.6 39.7L76.4 40L75.8 39.9L74.3 41.2L73.7 42.3C73.2333 42.7667 72.7333 43.2333 72.2 43.7C71.7333 44.1667 71.2667 44.6667 70.8 45.2C70.5333 45.4667 70.2333 45.7333 69.9 46C69.5667 46.2 69.3333 46.4667 69.2 46.8V47H69.1C69.0333 46.9333 68.9333 46.8667 68.8 46.8C68.7333 46.7333 68.7 46.7333 68.7 46.8C68.0333 48.0667 67.1 49.2 65.9 50.2L65.5 50.9C65.3 51.0333 65.0333 51.1667 64.7 51.3C64.4333 51.4333 64.2333 51.6 64.1 51.8L63.8 52.5L62.3 54.1L61.6 55.2L60.3 56.3C59.9 56.8333 59.5 57.4 59.1 58C58.7 58.5333 58.2667 59.0667 57.8 59.6L56.2 61.4L54.1 64.2L53.1 65.2L52.2 66.6L51.5 67.3L50.9 68.4C50.7 68.6667 50.5 68.9667 50.3 69.3C50.1 69.5667 49.8667 69.8667 49.6 70.2C49.4 70.4667 49.0333 71 48.5 71.8C47.9667 72.5333 47.3667 73.3667 46.7 74.3C46.0333 75.1667 45.4 75.9333 44.8 76.6C44.2667 77.2667 43.9333 77.6 43.8 77.6C43.7333 77.6667 43.3333 78.1 42.6 78.9C41.9333 79.7 41.1667 80.6333 40.3 81.7C39.4333 82.7 38.6333 83.6 37.9 84.4C37.2333 85.2 36.9 85.6333 36.9 85.7L34 88.9C33.6667 89.2333 33.1667 89.5667 32.5 89.9C31.9 90.3 31.3333 90.6667 30.8 91C30.6667 91.2667 30.1667 91.8333 29.3 92.7C28.4333 93.5667 27.8333 94.1 27.5 94.3L23.4 96.4C23.1333 96.6 22.8333 96.8 22.5 97C22.2333 97.2 22 97.4 21.8 97.6L19.5 98.8L19.1 99C19.0333 99.2 18.6333 99.5 17.9 99.9C17.2333 100.367 16.5333 100.767 15.8 101.1C15.0667 101.433 14.5333 101.667 14.2 101.8L13.2 102.2C13 102.333 12.7667 102.4 12.5 102.4C12.3 102.467 12.1 102.567 11.9 102.7C11.2333 102.967 10.5667 103.167 9.9 103.3C9.23333 103.5 8.53333 103.667 7.8 103.8L6 104Z" fill="#FFC043"/>
</svg>
